<svg xmlns="http://www.w3.org/2000/svg" width="203.793" height="74.925" viewBox="0 0 203.793 74.925">
  <path id="Tracé_2" data-name="Tracé 2" d="M46.5-39.84a.173.173,0,0,1,.12.06,1.86,1.86,0,0,0-.06.45,1.86,1.86,0,0,1-.06.45.269.269,0,0,1-.18.15.531.531,0,0,0-.24.15l-.12-.06a6.227,6.227,0,0,0,.24-.78l-.24-.12a2.937,2.937,0,0,1-.3-.18,1.49,1.49,0,0,0,.06.54.921.921,0,0,1,.12.36q0,.12-.3.24a1.324,1.324,0,0,0-.51-.24,3.709,3.709,0,0,1-.57-.18,1.621,1.621,0,0,0-.72-.09.672.672,0,0,1-.66-.45q0-.12-.24-.12-.42,0-.84-.03t-.84-.03a.244.244,0,0,1-.18-.06,2.452,2.452,0,0,0-1.23-.27,5.684,5.684,0,0,1-1.29-.09,1.709,1.709,0,0,0-.84-.03,4,4,0,0,1-.84.09q-.3,0-.66-.03t-.72-.03a1.877,1.877,0,0,0-.51.06q-.21.06-.51.12a5.433,5.433,0,0,0,1.05.39,1.176,1.176,0,0,1,.81.81A3.72,3.72,0,0,1,35.4-39a6.214,6.214,0,0,1-.81-.42,6.214,6.214,0,0,0-.81-.42.286.286,0,0,0-.27-.09,2.485,2.485,0,0,1-.45.03q.24.18.42.3a1.967,1.967,0,0,1,.3.24q.12.06.12.36a.2.2,0,0,1-.09.18q-.09.06-.15,0-.12,0-.24-.24l-.36-.54a.847.847,0,0,0-.78-.39,5.139,5.139,0,0,1-.96-.03.483.483,0,0,1,.06.21.483.483,0,0,0,.06.21.573.573,0,0,1,.12.6.548.548,0,0,1-.42.36,2.769,2.769,0,0,1-.39-.03,3.187,3.187,0,0,0-.45-.03,1.425,1.425,0,0,1-.39-.06q-.21-.06-.39.24H29.1l.18-.18.18-.18a1.39,1.39,0,0,1-.27-.03,1.39,1.39,0,0,0-.27-.03.986.986,0,0,1-.03.24.986.986,0,0,0-.03.24,1.482,1.482,0,0,1-.48.15,2.22,2.22,0,0,0-.54.15,1.179,1.179,0,0,0-.24-.57q-.12-.09-.54.21-.18.12-.48-.06a.777.777,0,0,0-.54.12.412.412,0,0,1-.36.09.951.951,0,0,0-.42.03,2.508,2.508,0,0,1-.42-.12,2.205,2.205,0,0,1-.51.18,3.708,3.708,0,0,0-.57.18,3.35,3.35,0,0,0-.45.27,3.351,3.351,0,0,1-.45.27,1.49,1.49,0,0,1-.54.06.159.159,0,0,1-.18-.18q0-.06.18-.24a.483.483,0,0,1,.21-.06.483.483,0,0,0,.21-.06v-.18a2.229,2.229,0,0,1-.39.09,2.229,2.229,0,0,0-.39.09,1.066,1.066,0,0,1-.3.09.924.924,0,0,0-.36.15q-.06.54-.78.48h-.36a.407.407,0,0,0-.3.12,1.9,1.9,0,0,1-1.08.48,9.71,9.71,0,0,0-1.14.18q-.54.12-1.05.27T15.54-36a.2.2,0,0,1-.21,0,.2.2,0,0,0-.21,0,2.253,2.253,0,0,0-.21.24,2.253,2.253,0,0,1-.21.24h-.06a.266.266,0,0,0-.12.03.266.266,0,0,1-.12.03,1.886,1.886,0,0,1-.03.3.485.485,0,0,0,.03.3.523.523,0,0,1-.12.72.761.761,0,0,0-.18.36,1.333,1.333,0,0,1-.18.42q.06.06.09.06t.09.06a.7.7,0,0,1,.12-.18.7.7,0,0,0,.12-.18q.12-.3.21-.6t.21-.6a.765.765,0,0,1,.36-.36,1.754,1.754,0,0,1-.3,1.38l-.24.48q-.12.24-.24.54a1.646,1.646,0,0,0-.09.21.591.591,0,0,1-.15.21,1.428,1.428,0,0,0-.72.96,5.409,5.409,0,0,1-.36,1.14,1.482,1.482,0,0,0-.15.48,4.048,4.048,0,0,1-.09.48q.36-.06.78-.09a4.12,4.12,0,0,0,.84-.15q.84-.12,1.65-.3t1.65-.3q1.02-.12,2.04-.21t2.04-.21a7.072,7.072,0,0,1,.87-.06h.81a.814.814,0,0,1,.6.24q.18.3.42.27a.6.6,0,0,0,.36-.15.858.858,0,0,1,1.08.18,1.551,1.551,0,0,0,.42.39,1.551,1.551,0,0,1,.42.39q.36.42.66.84t.66.84a1.98,1.98,0,0,0,.48.45,5.835,5.835,0,0,1,.54.39,6.856,6.856,0,0,1,.66.6q.24.3.42.57t.42.57a.173.173,0,0,1,.06.12q0,.06.12.12.54.06.6.51a1.489,1.489,0,0,0,.3.75q.06,0-.12.18a.746.746,0,0,0,.33.18q.21.06.09.48a1.763,1.763,0,0,0-.42-.06,1.763,1.763,0,0,1-.42-.06,2.253,2.253,0,0,0-.21.24,2.253,2.253,0,0,1-.21.24,1.961,1.961,0,0,0,.12.21l.18.27a2.335,2.335,0,0,0-.9-.06,1.544,1.544,0,0,1-.84-.12.649.649,0,0,1-.3-.24,1.015,1.015,0,0,0-.57-.45,2.856,2.856,0,0,0-.75-.09,7.032,7.032,0,0,1-.93-.06,2.465,2.465,0,0,0-.93.06,8,8,0,0,1-1.68.18,2,2,0,0,0-.69.12,3.882,3.882,0,0,1-.69.18q-.72.12-1.44.21t-1.5.15a2.733,2.733,0,0,0-1.05.21q-.51.21-1.05.39a.533.533,0,0,0-.24.06.533.533,0,0,1-.24.06q-.66.12-1.35.24t-1.35.24q-.18,0-.18.06a1.026,1.026,0,0,1-.63.33q-.33.03-.69.03a4.312,4.312,0,0,0-1.35.33,9.851,9.851,0,0,1-1.29.45q-.18,0-.18.24l-.54,1.98L9.3-16.02q-.18.66-.36,1.38T8.61-13.2q-.15.72-.27,1.5a2.356,2.356,0,0,0-.12.75,4.557,4.557,0,0,1-.06.75.346.346,0,0,0-.12.24q-.06.12-.12.27a.737.737,0,0,0-.06.27,1.561,1.561,0,0,0-.06.48,3.186,3.186,0,0,1-.03.45q-.03.21-.09.51a8.822,8.822,0,0,0,1.05-.27q.45-.15.93-.27t.9-.21q.42-.09.9-.21.42-.12.81-.27a7.492,7.492,0,0,1,.87-.27,1.065,1.065,0,0,1,.48-.12q.66-.12,1.26-.24l1.2-.24a1.053,1.053,0,0,0,.3-.12,1.3,1.3,0,0,1,.48-.24q.3-.06.63-.12a3.852,3.852,0,0,1,.69-.06,6.217,6.217,0,0,0,1.02-.09q.54-.09,1.02-.15a7.977,7.977,0,0,1,.99-.06,7.977,7.977,0,0,0,.99-.06q.6-.06,1.2-.15t1.2-.15a3.939,3.939,0,0,1,.84-.03q.42.03.84.09a.418.418,0,0,1,.18.03.213.213,0,0,0,.18-.03,1.045,1.045,0,0,1,1.02-.06,5.462,5.462,0,0,1,.84.6,7.119,7.119,0,0,1,.69.66q.33.36.63.72.36.48.72.9l.72.84a1.142,1.142,0,0,0,.3.21,1.142,1.142,0,0,1,.3.21,7.7,7.7,0,0,1,.66.75,7.7,7.7,0,0,0,.66.75,4.385,4.385,0,0,0,.51.54,4.385,4.385,0,0,1,.51.54.875.875,0,0,1,.12,1.14.227.227,0,0,0-.03.21.412.412,0,0,0,.09.21.538.538,0,0,1,.36.36,2.345,2.345,0,0,0,.18.48q.12.3.21.51t.21.51q.12.42-.18.48-.42.18-.54-.18L34.56-.9a.173.173,0,0,1-.12-.06,3.048,3.048,0,0,0,.03.48,2.584,2.584,0,0,1,.03.42.631.631,0,0,1-.21.45q-.21.21-.39.15a2.551,2.551,0,0,1-.24-.36.483.483,0,0,0-.21-.06.483.483,0,0,1-.21-.06.339.339,0,0,1-.03-.24.339.339,0,0,0-.03-.24,2.327,2.327,0,0,1-.12-.3Q33-.9,32.7-.66q-.06.06-.18-.03a2.253,2.253,0,0,1-.24-.21.7.7,0,0,1-.12-.48q-.36,0-.72-.03t-.66-.03q-1.2.12-2.4.27t-2.4.33q-.72.12-1.44.3L23.1-.18,21.66.06,20.22.3l-1.8.48-1.8.48a.418.418,0,0,0-.03-.18A.418.418,0,0,1,16.56.9a1.9,1.9,0,0,1-.96.24q-.54,0-.66.72-.42-.42-.66.06a1.1,1.1,0,0,1-.6.36q-.54.18-1.08.33t-1.08.27a.986.986,0,0,0-.24.03.339.339,0,0,1-.24-.03.411.411,0,0,0-.48.06.89.89,0,0,1-.42.24,5.127,5.127,0,0,1-.66.21,5.127,5.127,0,0,0-.66.21.173.173,0,0,1-.12.06.173.173,0,0,0-.12.06q.3.54-.3.72a.94.94,0,0,0-.24.18q-.12.12-.18.12a4.22,4.22,0,0,0-.27-.36,4.22,4.22,0,0,1-.27-.36.842.842,0,0,1-.03-.39,2.769,2.769,0,0,0,.03-.39A.346.346,0,0,1,7.44,3q.48-.3.21-.33a1.242,1.242,0,0,1-.39-.09,8.136,8.136,0,0,0-.81-.3,1,1,0,0,0-.81.12.461.461,0,0,0-.06.18.461.461,0,0,1-.06.18H5.4a.244.244,0,0,1-.18-.06.753.753,0,0,0-.3-.18.753.753,0,0,1-.3-.18.392.392,0,0,1-.18-.18q-.06-.12,0-.18a.382.382,0,0,0-.12-.6A.741.741,0,0,1,4.08.42a2.328,2.328,0,0,0-.3.12A.533.533,0,0,1,3.54.6H3.42A.173.173,0,0,1,3.3.54.993.993,0,0,1,3.36.06q.24-.3-.12-.42a.1.1,0,0,1-.09-.06.1.1,0,0,0-.09-.06q-.3-.24-.39-.21T2.4-.24a2.384,2.384,0,0,1-.36-.3,2.384,2.384,0,0,0-.36-.3,1.839,1.839,0,0,0,.18-.33q.06-.15.12-.27-.06,0-.06-.03T1.86-1.5l-.12.12a.47.47,0,0,1-.12.09.47.47,0,0,0-.12.09,1.961,1.961,0,0,0-.12-.21.37.37,0,0,1-.06-.21q0-.24.18-.24a1.133,1.133,0,0,1,.36-.06,1.133,1.133,0,0,0,.36-.06.665.665,0,0,0,.03.21.665.665,0,0,1,.03.21l.24-.24.24-.24a.47.47,0,0,1-.09-.12.325.325,0,0,0-.15-.12.2.2,0,0,0-.15-.06.483.483,0,0,1-.21-.06.892.892,0,0,1-.45-.09q-.15-.09-.09-.45a.519.519,0,0,0-.18-.36l-.3-.3a.7.7,0,0,0-.12-.18L.84-3.96a2.774,2.774,0,0,1-.33.09,2.774,2.774,0,0,0-.33.09v-.6A.608.608,0,0,0,0-5.04a.166.166,0,0,1-.03-.24A.259.259,0,0,1,.18-5.4q.3,0,.33-.15a.641.641,0,0,0-.03-.33,3.986,3.986,0,0,1-.3-.72Q.12-6.72.06-6.87a.318.318,0,0,1,0-.27.874.874,0,0,0,.06-.54L0-8.16A4.386,4.386,0,0,1,.03-8.7a4.386,4.386,0,0,0,.03-.54,7.733,7.733,0,0,0,.06-.96,7.732,7.732,0,0,1,.06-.96q.06-.3.12-.63t.12-.63a.237.237,0,0,1,.03-.15.237.237,0,0,0,.03-.15,2.723,2.723,0,0,1-.09-1.44q.15-.72.27-1.5a4.12,4.12,0,0,0,.15-.84,5.276,5.276,0,0,1,.15-.9q.18-.78.36-1.5t.36-1.5q.24-.78.42-1.5l.36-1.44a3.708,3.708,0,0,0,.18-.57,3.708,3.708,0,0,1,.18-.57l-.6-.6a.855.855,0,0,0,.57-.42q.15-.3.27-.6a13.828,13.828,0,0,0,1.26-3.27q.42-1.71.96-3.33a21.57,21.57,0,0,0,.78-2.28.54.54,0,0,0,.06-.54q-.12-.18-.27-.39a1.045,1.045,0,0,0-.39-.33,1.431,1.431,0,0,1-.84-.9q-.06-.3-.21-.33a2.774,2.774,0,0,1-.33-.09.393.393,0,0,1-.39-.18,2.749,2.749,0,0,1-.15-.36v-.45q0-.21.3-.33a2.584,2.584,0,0,0-.42.03.739.739,0,0,1-.36-.03q-.3-.12-.21-.3a1.142,1.142,0,0,1,.21-.3.409.409,0,0,0-.27-.03.409.409,0,0,1-.27-.03q-.06,0-.06-.15v-.21a.924.924,0,0,1,.36-.15.924.924,0,0,0,.36-.15l-.24-.12a2.934,2.934,0,0,1-.3-.18l.6-.6a3.182,3.182,0,0,0-.18-.66,1.584,1.584,0,0,0-.48-.6.765.765,0,0,1-.36-.39,5.3,5.3,0,0,0-.3-.57,1.053,1.053,0,0,1-.3-.12q-.24-.12-.24-.3-.06-.12.18-.36a1.4,1.4,0,0,0,.21-.27,1.4,1.4,0,0,1,.21-.27q.24-.24.3-.24a.536.536,0,0,0,.45-.06,2.214,2.214,0,0,1,.39-.24.6.6,0,0,1,.42-.09,3.867,3.867,0,0,0,.48.03.244.244,0,0,1-.06.18q.12.06.27.12a.737.737,0,0,0,.27.06,5.139,5.139,0,0,0,.96.03,5.139,5.139,0,0,1,.96.03,4.037,4.037,0,0,0,1.56-.06q.72-.18,1.5-.3a.836.836,0,0,0,.06-.36,1.081,1.081,0,0,1,.09-.48q.09-.18.51-.18.72,0,1.02-1.14a.475.475,0,0,0,.3.06l.06.06q-.12.3.03.39a1.4,1.4,0,0,1,.27.21.286.286,0,0,0,.27.09.286.286,0,0,1,.27.09,3.434,3.434,0,0,1,.6.66q.84-.18,1.74-.36t1.8-.3q1.14-.18,2.25-.33T21-47.04q.96-.12,1.92-.18l1.92-.12a1.7,1.7,0,0,1,.54-.03q.24.03.54.09a1.03,1.03,0,0,0,.42-.06,1.1,1.1,0,0,1,.54-.09.778.778,0,0,1,.48.33q0,.06.12.06a.526.526,0,0,0,.06-.15.526.526,0,0,1,.06-.15q.66-.06,1.23-.12t1.23-.12a1.33,1.33,0,0,1,.42.06,1.33,1.33,0,0,0,.42.06q.6-.06,1.2-.09t1.2-.03a3.2,3.2,0,0,1,.72.06,2.186,2.186,0,0,1,.36.03q.18.03.42.09.42,0,.81-.03a1.89,1.89,0,0,1,.75.09q1.08.12,2.13.33a7.6,7.6,0,0,1,2.07.75,4.535,4.535,0,0,1,.69.57q.33.33.69.63a1.02,1.02,0,0,1,.3.84q0,.72.78.6a1.024,1.024,0,0,0,.39.6,3.1,3.1,0,0,0,.57.3,1.478,1.478,0,0,1,.72.84,1.071,1.071,0,0,0,.3.3.942.942,0,0,1,.72.54q.18.42.36.9a.533.533,0,0,1,.06.24q0,.12.24.06ZM5.88-40.68a1.638,1.638,0,0,1-.66-.36.27.27,0,0,1,.03-.27q.09-.15.15-.27-.3-.12-.39.12t-.21.54q-.06.06,0,.15t.12.09ZM3.6-3.78a4.413,4.413,0,0,1,.48-.18.649.649,0,0,0-.78.03,1.86,1.86,0,0,1-.66.39,1.287,1.287,0,0,0,.3.24q.18-.12.33-.24T3.6-3.78Zm28.68.36-.48-.12q.12.3.24.57t.24.57a.633.633,0,0,0,.18-.54A2.345,2.345,0,0,0,32.28-3.42Zm-1.26.96a1.185,1.185,0,0,0-.27-.6.348.348,0,0,0-.45-.12q-.42.18-.78.36a1.856,1.856,0,0,1-.84.18,1.052,1.052,0,0,0-.3.12v.12q.66,0,1.32-.03T31.02-2.46ZM28.14-3.9a1.839,1.839,0,0,0-.18.33q-.06.15.24.27a1.434,1.434,0,0,0,.66.09q.36-.03.78-.03-.42-.18-.78-.33T28.14-3.9Zm-1.5-2.34a.122.122,0,0,0,.03.09.122.122,0,0,1,.03.09h.84v-.18Zm.9,1.2q-.78-.54-1.14.06a5.166,5.166,0,0,0,.57-.03A5.166,5.166,0,0,1,27.54-5.04ZM25.8-3.06a1.534,1.534,0,0,0-.42-.15,1.534,1.534,0,0,1-.42-.15q.12.42.33.42h.45A.173.173,0,0,1,25.8-3.06ZM22.86-5.94a.053.053,0,0,1-.06.06q.12.12.18.12.36-.06.69-.09t.69-.09v-.12q-.36,0-.72.03T22.92-6ZM21.72-1.26a3.08,3.08,0,0,1-.72.15,3.08,3.08,0,0,0-.72.15.244.244,0,0,0,.06.18q1.92-.36,3.9-.72t3.9-.72a5.038,5.038,0,0,0-.69-.18q-.33-.06-.75-.18-.78.3-1.38.48-.48.12-1.02.21t-1.08.21H23.1a.948.948,0,0,1-.69.3A1.848,1.848,0,0,0,21.72-1.26Zm-4.2.12a2.848,2.848,0,0,0,.66-.06q-.12-.3-.24-.3T17.52-1.14Zm1.02-2.52h-.48a2.781,2.781,0,0,1-.54-.06.632.632,0,0,0,.57.27A.569.569,0,0,0,18.54-3.66ZM14.76-2.52a3.681,3.681,0,0,0-.51.03,3.681,3.681,0,0,1-.51.03.266.266,0,0,0,.03.12.266.266,0,0,1,.03.12,4.471,4.471,0,0,1,.45-.09q.21-.03.51-.09ZM13.68,1.2a.966.966,0,0,0-.75-.09,2.4,2.4,0,0,0-.81.27V1.5a3.119,3.119,0,0,1,.75-.15A4.094,4.094,0,0,0,13.68,1.2ZM7.32,1.08a7.079,7.079,0,0,0-.87.39q-.39.21-.81.45v.06a1.444,1.444,0,0,0,.39-.15.2.2,0,0,1,.27.03q.3.12.39,0a.6.6,0,0,1,.21-.18,1.379,1.379,0,0,0,.48-.48q0-.06-.03-.06T7.32,1.08Zm3.54-33.66.24-.72.24-.72h-.12q-.3.78-.48,1.38Zm-.12,3.9a3.432,3.432,0,0,0,.78-.24,5.87,5.87,0,0,1-.6-.36q-.06.18-.09.3T10.74-28.68ZM27.36-39.42a4.97,4.97,0,0,0,.9.06v-.12q-.36-.06-.69-.09a2.188,2.188,0,0,0-.63.03h-.78a4.373,4.373,0,0,0-.72.06,2.91,2.91,0,0,1-.57.06,1.125,1.125,0,0,0-.51.12,3.119,3.119,0,0,0-.69.33q-.33.21-.75.45h1.14q0-.54.6-.54h.6a.688.688,0,0,0,.54-.3h.18a2.186,2.186,0,0,0,.36-.03,2.186,2.186,0,0,1,.36-.03Zm1.56-.24q.36,0,.75-.03t.75-.03v-.06a1.167,1.167,0,0,0-.45-.03.367.367,0,0,1-.33-.09.693.693,0,0,0-.69-.09,1.157,1.157,0,0,1-.57.15q.12.18.24.33a3.273,3.273,0,0,0,.24.27A1.33,1.33,0,0,1,28.92-39.66Zm3.54.06a1.763,1.763,0,0,1,.42.48.46.46,0,0,1,.06.18.461.461,0,0,0,.06.18,1.389,1.389,0,0,0-.18.3q-.3-.48-.57-.36t-.63.24a4.935,4.935,0,0,1,.42-.72Q32.34-39.6,32.46-39.6Zm1.92,1.02a.291.291,0,0,1,.33-.03q.15.09.27.15.42.12.18.6-.18-.12-.33-.21t-.33-.21l-.18-.18a.106.106,0,0,1-.12-.12ZM13.14-30.12a1.658,1.658,0,0,1,.15-.33q.09-.15.21-.33.18.18.18.24l-.18.72a.475.475,0,0,1-.3.06.418.418,0,0,0-.03-.18A.418.418,0,0,1,13.14-30.12Zm17.64,8.46q.24-.18.39-.06a1.311,1.311,0,0,1,.27.3.379.379,0,0,1-.66.06.244.244,0,0,1-.06-.18Q30.72-21.66,30.78-21.66Zm5.46-16.98.06-.12q.24.12.45.24t.45.24q.06.06.3.36h-.36a.629.629,0,0,0-.39-.39A1.312,1.312,0,0,1,36.24-38.64ZM.48-2.82a4.193,4.193,0,0,1,.48-.54q.18.3.12.39T.48-2.82Zm59.76-44.7a4.756,4.756,0,0,1,.54.81,1.532,1.532,0,0,1,.18.93q-.12.84-.18,1.65a12.159,12.159,0,0,1-.24,1.65,12.564,12.564,0,0,1-1.62,3.78q-.24.36-.45.75a1.894,1.894,0,0,1-.69.69.173.173,0,0,0-.06.12.46.46,0,0,1-.06.18q-.06,0-.06-.03t-.06-.03a3.293,3.293,0,0,0,.18-.42q.06-.18.18-.48l-.54.54a2.789,2.789,0,0,0-.42.54,1.124,1.124,0,0,0-.12.6.93.93,0,0,1-.42,1.02q-.12.12-.27.3a2.166,2.166,0,0,0-.27.42.3.3,0,0,1-.06.39q-.18.21-.36.39-.06.06-.3-.03a2.057,2.057,0,0,1-.42-.21.053.053,0,0,0-.06.06v.12q.3.3.06.45a.962.962,0,0,0-.36.39,2.631,2.631,0,0,1-.3.54q-.12.36-.24.42-.3.3-.6.63t-.6.69a1.071,1.071,0,0,0-.09.27.523.523,0,0,1-.15.27q-.54.6-1.08,1.17t-1.14,1.17q-.3.36-.66.72l-.72.72q-.54.48-1.11.93t-1.17.93a.453.453,0,0,0-.18.15,1.455,1.455,0,0,1-.18.21,12.586,12.586,0,0,1-.96.87,12.584,12.584,0,0,0-.96.87,1.373,1.373,0,0,1-.54.24.122.122,0,0,0-.03-.09.237.237,0,0,1-.03-.15,1.045,1.045,0,0,0-.48.96,1.975,1.975,0,0,1-.36,1.26.475.475,0,0,0-.06.3,1.893,1.893,0,0,1,.06,1.05,8.846,8.846,0,0,0-.18,1.05.842.842,0,0,0-.03.39,1.167,1.167,0,0,1-.03.45l-.18,1.26a7.732,7.732,0,0,0-.06.96,7.732,7.732,0,0,1-.06.96q-.06.54-.09,1.05t-.09.99a1.763,1.763,0,0,0-.06.42,1.763,1.763,0,0,1-.06.42q0,.66-.03,1.38T41.88-8.1a7.033,7.033,0,0,1-.06.93,3.618,3.618,0,0,0,0,.93q.06,1.14.06,2.25a8.146,8.146,0,0,0,.3,2.19,2.718,2.718,0,0,1,.18.96,1.3,1.3,0,0,0,.36.96l.72.72.54.54a.967.967,0,0,1-.12.42,1.173,1.173,0,0,1-.24.09.269.269,0,0,0-.18.15q-.12.12-.27.3t-.27.3a.346.346,0,0,1-.24.12q-.12,0-.12-.06a.447.447,0,0,0-.39-.15,1.167,1.167,0,0,1-.45-.03q-.12,0-.27-.18a1.548,1.548,0,0,0-.33-.3.591.591,0,0,1-.15-.21.273.273,0,0,0-.15-.15,1.268,1.268,0,0,1-.9-.84A.786.786,0,0,1,39.06.3q-.06-.36-.6-.36a.934.934,0,0,1-.69-.36,2.98,2.98,0,0,1-.33-.6,1.2,1.2,0,0,0-.45-.6,5.3,5.3,0,0,1-.63-.54.854.854,0,0,0-.18-.15.325.325,0,0,1-.12-.15,4.467,4.467,0,0,1-.69-1.38,11.264,11.264,0,0,1-.33-1.56L34.8-6.84q-.12-.72-.18-1.44a16.346,16.346,0,0,1,0-1.98q.06-.96.06-1.98a7.932,7.932,0,0,1,.24-2.04,1.358,1.358,0,0,0-.03-.63,2.394,2.394,0,0,1-.09-.63,3.186,3.186,0,0,1,.03-.45,2.769,2.769,0,0,0,.03-.39,4.094,4.094,0,0,0,.15-.81q.03-.39.09-.81a2.669,2.669,0,0,0,.06-.51,1.86,1.86,0,0,1,.06-.45,7.732,7.732,0,0,0,.06-.96,3.945,3.945,0,0,1,.12-.96,2.622,2.622,0,0,1,.06-.57q.06-.27.12-.57.06-.42.09-.84a4.12,4.12,0,0,1,.15-.84q.12-.66.21-1.32t.21-1.32q.18-.78.33-1.53t.33-1.53l.9-3.6a4.048,4.048,0,0,0,.09-.48,4.048,4.048,0,0,1,.09-.48,3.954,3.954,0,0,1,.6-1.32.96.96,0,0,0,.15-.42,4.048,4.048,0,0,1,.09-.48,4.094,4.094,0,0,0,.15-.81,3.119,3.119,0,0,1,.15-.75.288.288,0,0,1,.09-.21l.21-.21a4.241,4.241,0,0,1,.3-1.59q.3-.75.66-1.53a5.937,5.937,0,0,0,.39-.81q.15-.39.33-.81.18-.3.36-.57t.36-.57a3.923,3.923,0,0,1,.24-.42l.24-.36q.54-.84,1.11-1.65t1.17-1.65a10.2,10.2,0,0,1,.93-.93,6.246,6.246,0,0,0,.87-.93,4.285,4.285,0,0,1,1.2-1.2q.72-.48,1.44-.9a7.325,7.325,0,0,1,1.14-.51q.6-.21,1.26-.39a4.7,4.7,0,0,1,1.65-.18,2.873,2.873,0,0,1,1.53.6,6.445,6.445,0,0,1,.81.69q.39.39.81.75a.649.649,0,0,0,.3.24,3.434,3.434,0,0,0,.66.6q.18.12.42.27a2.358,2.358,0,0,1,.42.33q.6.54,1.17,1.05A9.191,9.191,0,0,1,60.24-47.52ZM39.9-37.38a.728.728,0,0,0-.48.42,3.183,3.183,0,0,0-.18.66,3.748,3.748,0,0,0,.66-.3ZM39.12-9.54a.688.688,0,0,0-.09-.51q-.15-.27.33-.57h-.6a1.447,1.447,0,0,1,.06,1.08.948.948,0,0,0,.3,1.02h.12q-.06-.3-.12-.51A1.091,1.091,0,0,1,39.12-9.54Zm.24-6.06a5.936,5.936,0,0,1,.3-.9.991.991,0,0,0-.18-.96q-.06.48-.09.93a5.285,5.285,0,0,1-.15.93Zm.24-2.1q.06-.48.09-.9a5.276,5.276,0,0,1,.15-.9.122.122,0,0,1-.09-.03.122.122,0,0,0-.09-.03q-.06.48-.09.93t-.09.93Zm.3-2.16q.12-.84.21-1.59t.21-1.59a2.563,2.563,0,0,0-.42,1.56,4.589,4.589,0,0,1-.18,1.62Zm18-27.6q-.12,0-.27.18a1.548,1.548,0,0,1-.33.3q.06,0,.06.12a1.886,1.886,0,0,1,.3.03q.18.03.24-.03.12-.3.3-.21a2.749,2.749,0,0,0,.36.15l.06-.06a4.221,4.221,0,0,1-.36-.27A1.124,1.124,0,0,0,57.9-47.46Zm0,2.16q.3-.72-.72-.66.12.3.24.66a.213.213,0,0,1,.03.18.213.213,0,0,0,.03.18,2.622,2.622,0,0,1-.06.57.628.628,0,0,0,.24.57.7.7,0,0,1,.12-.18.173.173,0,0,0,.06-.12.465.465,0,0,1,.12-.54q.24-.24-.12-.54Zm-.42,1.74a.419.419,0,0,0-.36.48,4.86,4.86,0,0,1-.66,2.04q-.3.6-.63,1.17T55.2-38.7a.531.531,0,0,0-.15.24.531.531,0,0,1-.15.24,1.262,1.262,0,0,0-.36.54.89.89,0,0,0,.24.66q.9-1.62,1.8-3.21a8.684,8.684,0,0,0,1.08-3.51Q57.54-43.56,57.48-43.56ZM56.7-45.9a.578.578,0,0,0,0-.84Zm-.12,1.08q-.42.06-.78.09t-.66.03a4.386,4.386,0,0,0,.03.54,4.386,4.386,0,0,1,.03.54.605.605,0,0,0,.33-.45.363.363,0,0,1,.33-.33,4.934,4.934,0,0,0,.42.72,1.051,1.051,0,0,0,.06-.33.6.6,0,0,1,.06-.27Zm-.24-4.44a4.925,4.925,0,0,0-.87.3,4.925,4.925,0,0,1-.87.3.244.244,0,0,1,.06.18.625.625,0,0,0,.36-.06,4.234,4.234,0,0,0,.69-.3q.33-.18.63-.36Zm-.96-.66a2.42,2.42,0,0,0-1.29.18.585.585,0,0,0-.33.72,4.506,4.506,0,0,1,.42-.48.926.926,0,0,0,.69-.03A.892.892,0,0,0,55.38-49.92ZM53.82-45.9q-.12.42-.24.81t-.24.75a.173.173,0,0,0,.12.06,7.1,7.1,0,0,1,.27-.78,7.1,7.1,0,0,0,.27-.78A.244.244,0,0,1,53.82-45.9Zm-.48-.6a5.87,5.87,0,0,1,.36-.6q-.36,0-.42.09T53.34-46.5Zm.42,10.44a.122.122,0,0,0,.03.09.122.122,0,0,1,.03.09h.12q.18-.24.33-.45a3.351,3.351,0,0,0,.27-.45q-.06,0-.06-.03t-.06-.03a7.792,7.792,0,0,1-.66.72ZM51.72-50.82l-.12.12.27.27q.15.15.27.09a.457.457,0,0,1,.6.24q.42-.18.81-.36t.87-.36q-.12,0-.15-.06t-.15,0a3.207,3.207,0,0,1-.63.06,1.681,1.681,0,0,0-.63.12.765.765,0,0,1-.84-.12.136.136,0,0,0-.15-.03A.494.494,0,0,1,51.72-50.82Zm-.78,1.98q.3-.24.51-.42t.45-.42a.694.694,0,0,0-.09-.15.694.694,0,0,1-.09-.15Zm-.48.78a4.2,4.2,0,0,0,.6.3,11.93,11.93,0,0,1,.78-1.2l-.12-.12a3.923,3.923,0,0,0-.42.24l-.36.24a.173.173,0,0,1-.06-.12Zm1.68-.24a.91.91,0,0,0-.33.09q-.21.09-.15.21a1.217,1.217,0,0,0,.24.66.94.94,0,0,1,.24-.18.94.94,0,0,0,.24-.18.47.47,0,0,0,.09-.12.325.325,0,0,1,.15-.12l-.24-.24A.346.346,0,0,0,52.14-48.3Zm-3.18-1.98a.924.924,0,0,1,.15.36.537.537,0,0,0,.15.3.47.47,0,0,1,.09.12.47.47,0,0,0,.09.12q.24-.12.84-.36.18-.36-.3-.6l.36-.54-.06-.06ZM41.04-26.52q.12-.36.21-.72t.21-.78a.053.053,0,0,0-.06-.06q-.12,0-.12-.06-.12.48-.21.9t-.21.84a.053.053,0,0,0,.06.06Q41.04-26.46,41.04-26.52Zm1.14-7.26a2.3,2.3,0,0,1-.78-.3q-.12-.12-.06-.72a.215.215,0,0,0-.03-.24,1.576,1.576,0,0,1-.15-.24l-.12.06a6.017,6.017,0,0,0-.36.72q.48-.12.51.15a1.5,1.5,0,0,0,.15.51,5,5,0,0,1,.21.48,5,5,0,0,0,.21.48h.06Zm2.94-8.04q.24-.3.39-.51t.33-.45a.537.537,0,0,1,.36-.3.453.453,0,0,0,.27-.12q.15-.12.09-.24a.854.854,0,0,1,.15-.51,2.427,2.427,0,0,0,.27-.51q.18-.42.6-.18a1.388,1.388,0,0,1,.3.18.533.533,0,0,1,.24-.06.533.533,0,0,0,.24-.06.106.106,0,0,0,.12.12,7.166,7.166,0,0,0-.45.63q-.21.33-.39.63a6.708,6.708,0,0,0-.42.72,6.708,6.708,0,0,1-.42.72q-.78,1.02-.6,1.38.48-.72.72-1.14.24-.36.45-.72a5.451,5.451,0,0,1,.45-.66,1.808,1.808,0,0,1,.3-.51q.18-.21.36-.45a1.142,1.142,0,0,0,.21-.3.507.507,0,0,1,.21-.24,1.471,1.471,0,0,0,.84-.78.649.649,0,0,1,.24-.3l.9-1.08a.531.531,0,0,0,.15-.24.531.531,0,0,1,.15-.24.986.986,0,0,1-.24-.03.338.338,0,0,0-.24.03q-.36.36-.45.06a.486.486,0,0,0-.27-.36,12.477,12.477,0,0,1-1.32.78q-.48.3-.9.51t-.42.09a1.08,1.08,0,0,1,.18-.33q.18-.27.39-.63t.45-.72q.24-.36.42-.6a.47.47,0,0,0-.12-.09.325.325,0,0,1-.12-.15q-.3.3-.6.66a5.013,5.013,0,0,0-.6.96,2.693,2.693,0,0,1-.42.66q-.18.18-.36.33t-.36.33a1.926,1.926,0,0,0-.36.66,6.142,6.142,0,0,1-.87,1.44q-.57.72-.99,1.26a.346.346,0,0,0,.24-.12,2.116,2.116,0,0,1,.45-.12.944.944,0,0,1,.33.12.533.533,0,0,1,.06.24A.533.533,0,0,0,45.12-41.82Zm.84,11.16q.24-.24.48-.45a3.975,3.975,0,0,0,.48-.51q-.06,0-.18-.12a6.222,6.222,0,0,1-.45.51l-.45.45Zm6.3-12.78a3.28,3.28,0,0,0,.45-.87q.15-.45.33-.93a13.066,13.066,0,0,0-1.92,1.98,31.805,31.805,0,0,0-1.92,2.64,24.979,24.979,0,0,0-1.53,2.67,10.4,10.4,0,0,0-.81,2.07,2.253,2.253,0,0,0,.21-.24,2.254,2.254,0,0,1,.21-.24q1.02-1.2,2.04-2.58.48-.66.93-1.35t.93-1.35q.3-.48.54-.93A7.856,7.856,0,0,1,52.26-43.44Zm2.58,8.46q.72.18.72-.54a1.855,1.855,0,0,0-1.08.66q-.3.3-.54.51t-.54.51a3.651,3.651,0,0,1-.42.54l.12.12q.24-.18.48-.33a.962.962,0,0,0,.36-.39,1.092,1.092,0,0,1,.36-.48,2.089,2.089,0,0,0,.42-.42Q54.84-34.92,54.84-34.98Zm3.66-6.48q.06-.36.09-.75t.09-.81a.106.106,0,0,0-.12.12q-.12.18-.24.33t.06.45a.261.261,0,0,1-.06.36,3.274,3.274,0,0,1-.27.24,3.274,3.274,0,0,0-.27.24q.42.06.24.48-.24.48-.36.78a3.12,3.12,0,0,0-.3.69.962.962,0,0,1-.42.57,1.373,1.373,0,0,0-.57.87,1.455,1.455,0,0,1-.51.87.475.475,0,0,0,.3-.06,2.789,2.789,0,0,1,.42-.54,1.6,1.6,0,0,0,.36-.54q.3-.66.57-1.26t.57-1.26a3.354,3.354,0,0,0,.21-.36Zm.42-1.98q0-.48-.03-1.02t-.09-1.02q-.18.06-.3.09a.986.986,0,0,1-.24.03,3.273,3.273,0,0,1,.24.27,1.573,1.573,0,0,1,.18.27,4.2,4.2,0,0,1,.06.69v.69ZM73.56-12.78v.3q-.3.54-.6,1.11a7.8,7.8,0,0,1-.66,1.05,2.18,2.18,0,0,1-1.02.9q-.3.12-.24.36a.353.353,0,0,1-.18.3,1.514,1.514,0,0,1-.36.18.242.242,0,0,0-.24.12,1.763,1.763,0,0,0-.42.48q-.12.12-.12.18a.357.357,0,0,1-.12.39.521.521,0,0,1-.3.15.5.5,0,0,0-.45.24,1.163,1.163,0,0,1-.33.36,1.3,1.3,0,0,0-.24.48.361.361,0,0,1-.24.24q-.12.12-.3.27t-.3.27a.053.053,0,0,0-.06.06,1.948,1.948,0,0,0-.84.63,1.553,1.553,0,0,1-.84.57,1.725,1.725,0,0,0-.75.51,2.855,2.855,0,0,1-.63.57,9.883,9.883,0,0,1-.84.54,9.883,9.883,0,0,0-.84.54,7.688,7.688,0,0,0-.69.39,7.688,7.688,0,0,1-.69.39q-.54.3-1.11.57a4.912,4.912,0,0,1-1.23.39,8.2,8.2,0,0,1-1.2.15,8.019,8.019,0,0,1-1.2-.03,5.751,5.751,0,0,0-.87.06,2.748,2.748,0,0,1-.81,0,4.069,4.069,0,0,1-1.32-.36.407.407,0,0,0-.3-.12.668.668,0,0,1-.3-.06,1.237,1.237,0,0,1-.48-.24l-.72-.36q-.36-.18-.78-.36-.48-.24-.93-.42a5.9,5.9,0,0,1-.93-.48,1.574,1.574,0,0,1-.27-.18,3.272,3.272,0,0,1-.27-.24l-1.26-.9a3.981,3.981,0,0,1-1.14-1.38,2.345,2.345,0,0,1-.18-.48,4.255,4.255,0,0,0-.18-.54,2.22,2.22,0,0,1-.15-.54q-.03-.24-.09-.54a1.82,1.82,0,0,1-.06-.54.475.475,0,0,0-.06-.3q-.3-.24-.24-.48a1.972,1.972,0,0,0,.06-.48v-.69a4.2,4.2,0,0,1,.06-.69,5.374,5.374,0,0,0,.15-.99,5.374,5.374,0,0,1,.15-.99q.12-.66.3-1.29T46.26-15q.12-.42.27-.84t.33-.84q.3-.66.57-1.29T48-19.26a7.088,7.088,0,0,1,.39-.78q.21-.36.45-.78a3.737,3.737,0,0,1,.39-.54,3.737,3.737,0,0,0,.39-.54.691.691,0,0,1,.48-.24q.18-.06.18-.36a.173.173,0,0,0,.06-.12.173.173,0,0,1,.06-.12,1.763,1.763,0,0,1,.48-.42,1.3,1.3,0,0,0,.48-.24,1.307,1.307,0,0,0,.36-.39,1.307,1.307,0,0,1,.36-.39,1.336,1.336,0,0,0,.42-.33q.18-.21.36-.39.06-.06.06-.09t.06-.09a.173.173,0,0,0,.06-.12,4.128,4.128,0,0,0,.51-.24,4.129,4.129,0,0,1,.51-.24l.06.06a1.589,1.589,0,0,1,.66-1.08q.24-.18.45-.36a3.748,3.748,0,0,1,.51-.36.339.339,0,0,0,.03-.24q-.03-.12.27-.06.06,0,.12-.09a.453.453,0,0,1,.18-.15q-.12.3-.36.78l.06.06a1.311,1.311,0,0,0,.3-.27.4.4,0,0,1,.42-.09.519.519,0,0,0,.36-.18.289.289,0,0,1,.42,0q.24-.48.54-.18.24.24.3-.06a1.708,1.708,0,0,1,.36-.3q.36-.3.66.18h1.2a.325.325,0,0,0,.15-.12.854.854,0,0,1,.15-.18.854.854,0,0,0,.18.15.47.47,0,0,1,.12.09.836.836,0,0,1,.36-.06q.3.06.57.09a2.193,2.193,0,0,1,.57.15,6.707,6.707,0,0,0,.72.42,2.07,2.07,0,0,1,.66.54.9.9,0,0,0,.48.3.7.7,0,0,1,.18.12.7.7,0,0,0,.18.12q.12.12.18.12a6.329,6.329,0,0,1,1.8.9q0,.06.18.06a.94.94,0,0,0,.24.18q.12.06.12.3a.106.106,0,0,0,.12.12,1.454,1.454,0,0,1,.18.21,1.961,1.961,0,0,1,.12.21,3.292,3.292,0,0,1,.42.18v.06q-.42.12-.24.42-.3-.06-.33.12a1.886,1.886,0,0,0-.03.3,1.82,1.82,0,0,1-.06.54l.18-.09.18-.09a.244.244,0,0,1-.06-.18.347.347,0,0,1,.06-.24q.18,0,.18.06t.03.06q.03,0,.03.06v.12q-.18.12-.15.18l.09.18a1.388,1.388,0,0,1,.18.3v.3h-.36v.66a.668.668,0,0,1,.3-.06v.24a.46.46,0,0,0-.06.18.46.46,0,0,1-.06.18q-.12.24-.15.24a1.5,1.5,0,0,1-.27-.12q-.18.3-.33.6t-.33.6a2.348,2.348,0,0,1-.3.54,6.324,6.324,0,0,0-.36.54,2.634,2.634,0,0,0-.18.45,1.384,1.384,0,0,1-.18.39q-.24.3-.51.66a2.048,2.048,0,0,1-.57.54,1.548,1.548,0,0,0-.54.6.942.942,0,0,1-.66.48.106.106,0,0,0-.12.12.346.346,0,0,1-.12.24l-.36.36a.649.649,0,0,1-.48.18l-.06.06a.053.053,0,0,0-.06.06,1.107,1.107,0,0,1-.6.54l-.72.24a.346.346,0,0,1-.24-.12q-.06,0-.06.03t-.06.03a.649.649,0,0,1,.24.3.425.425,0,0,1-.27.42,2.624,2.624,0,0,0-.51.3.346.346,0,0,1-.24.12.346.346,0,0,0-.24.12,5.166,5.166,0,0,0-.78.36.694.694,0,0,1-.15-.09.694.694,0,0,0-.15-.09l-.12.12q.42.3-.06.54a2.419,2.419,0,0,1-.39.21,2.419,2.419,0,0,0-.39.21q-.42.18-.6-.12a.506.506,0,0,1,.45-.39,1.094,1.094,0,0,0,.57-.21.94.94,0,0,1,.24-.18L58.44-12a.533.533,0,0,1-.24.06.533.533,0,0,0-.24.06l-.72.24-.72.24h-.06q-.42.12-.9.24a2.335,2.335,0,0,1-.9.06.173.173,0,0,1-.12-.06.7.7,0,0,0-.18-.12,1.39,1.39,0,0,1-.27-.03.409.409,0,0,0-.27.03,1.964,1.964,0,0,0-.48.12q-.6.12-.48-.54a2.781,2.781,0,0,1-.54.06,2.781,2.781,0,0,0-.54.06q-.18.84-.36,1.8l-.18,2.16A6.2,6.2,0,0,0,51.33-6a14.817,14.817,0,0,0,.39,1.56q0,.18.12.18.3.06.54.09a1.7,1.7,0,0,0,.54-.03,1.132,1.132,0,0,0,.36-.06l.36-.12a4.221,4.221,0,0,1,1.02-.24,1.849,1.849,0,0,0,1.02-.48.346.346,0,0,1,.24-.12.533.533,0,0,0,.24-.06,17.243,17.243,0,0,0,1.62-1.05q.78-.57,1.56-1.17a4.516,4.516,0,0,1,.75-.51q.39-.21.81-.45l.21-.21.21-.21a.053.053,0,0,0,.06-.06L61.44-9a.77.77,0,0,0,.57-.21,4.2,4.2,0,0,0,.39-.45q.06-.06.09-.06t.09-.06l.72-.48.72-.48a7.736,7.736,0,0,0,.99-.78q.45-.42.93-.9a3.155,3.155,0,0,1,.6-.48,3.155,3.155,0,0,0,.6-.48q.18-.18.36-.39a1.1,1.1,0,0,0,.24-.51.1.1,0,0,1,.06-.09.325.325,0,0,0,.12-.15,1.052,1.052,0,0,1,.12.3q-.12.36-.18.6a4.233,4.233,0,0,1,.3-.42,1.4,1.4,0,0,0,.36-.24,2.231,2.231,0,0,0,.06.54,3.514,3.514,0,0,0,.42-.48.958.958,0,0,1,.54-.42q.36-.06.36.24-.06.3-.09.57t-.09.57q-.06.12-.12.27a1.839,1.839,0,0,1-.18.33l.54-.36.12.12-.36.48q-.18.24-.42.54a.755.755,0,0,0,.72-.3q.06-.12.15-.12a.329.329,0,0,0,.21-.12,1.261,1.261,0,0,1,.42-.9.568.568,0,0,1,0,.51q-.12.21-.24.45l.06.06a.053.053,0,0,0,.06.06.854.854,0,0,0,.15-.18.854.854,0,0,1,.15-.18.346.346,0,0,1,.24-.12.173.173,0,0,1,.06.12.173.173,0,0,0,.06.12v.18h.06a.418.418,0,0,1,.03-.18.213.213,0,0,0-.03-.18.607.607,0,0,1,.24-.72q0-.06.12-.06v.42a.649.649,0,0,0,.3-.24q.24-.36.48.06a.266.266,0,0,0,.03.12.266.266,0,0,1,.03.12,3.6,3.6,0,0,1,.48-.12.2.2,0,0,1,.18.09,1.454,1.454,0,0,0,.18.21Zm-8.4-4.8a1.142,1.142,0,0,0-.21.3,1.142,1.142,0,0,1-.21.3l.06.06A.753.753,0,0,0,65.16-17.58Zm-9.72-1.38q-.3.42-.57.78t-.57.78a5.522,5.522,0,0,0-.42.75,5.522,5.522,0,0,1-.42.75l-.12.24q.18-.06.3-.09a.986.986,0,0,1,.24-.03.708.708,0,0,1,.09-.3q.09-.18.21-.12.18.06.24,0a.7.7,0,0,1,.18-.12.94.94,0,0,1,.24-.18.94.94,0,0,0,.24-.18q.3-.18.57-.36t.57-.42q.3-.18.57-.36t.57-.42q.42-.3.84-.63t.84-.63a3.975,3.975,0,0,0,.51-.48.719.719,0,0,1,.57-.24Q60-20.34,60-20.4a.159.159,0,0,1,.18-.18.347.347,0,0,1,.24-.06.39.39,0,0,0,.33-.12.4.4,0,0,0,.09-.24.358.358,0,0,1,.06-.36l.24-.24a.774.774,0,0,0,.27-.3,3.354,3.354,0,0,1,.21-.36,5.49,5.49,0,0,0,.51-.87,4.633,4.633,0,0,0,.33-1.05q-.24.06-.6.18-.18-.24-.03-.3a.379.379,0,0,0,.21-.18h-.36q0,.3-.06.3a.933.933,0,0,1-.39.15.564.564,0,0,0-.33.15l-.06-.06h-.18q-.24.18-.42.33t-.36.33q.18.18-.06.24a1.448,1.448,0,0,0-1.02.6,1.96,1.96,0,0,0-.78.72.453.453,0,0,1-.15.18,1.454,1.454,0,0,0-.21.18,5.206,5.206,0,0,1-.54.48,5.205,5.205,0,0,0-.54.48,5.992,5.992,0,0,0-.54.6,1.846,1.846,0,0,0-.3.39A4.385,4.385,0,0,1,55.44-18.96Zm-1.02-.24q-.54.06-.42.48a.053.053,0,0,0,.06.06Zm-.84.66a1.839,1.839,0,0,0-.18.33q-.06.15-.18.39Q53.7-18.12,53.58-18.54Zm-.66,1.2a.293.293,0,0,0-.06.21q0,.15-.18-.15l-.18.18a1.33,1.33,0,0,0,.42.06,4.2,4.2,0,0,0,.3-.6.053.053,0,0,0-.06-.06A1.4,1.4,0,0,1,52.92-17.34Zm-.18-.12a.986.986,0,0,0-.03-.24,1.262,1.262,0,0,1-.03-.3,1.454,1.454,0,0,0-.18.21,1.962,1.962,0,0,0-.12.21q.12.24.18.24T52.74-17.46Zm-.48-3.18a4.506,4.506,0,0,0-.42.48,4.506,4.506,0,0,1-.42.48q.54.18.54-.36,0-.06.18-.24a.591.591,0,0,1,.21-.15.591.591,0,0,0,.21-.15l-.06-.06ZM49.02-10.8a.46.46,0,0,1,.18-.06.46.46,0,0,0,.18-.06l-.18-.18q-.12,0-.12.06a1.041,1.041,0,0,0-.12.96,2.186,2.186,0,0,1,.03-.36A2.186,2.186,0,0,0,49.02-10.8Zm.3-.72q.12-.3.36-.78a.053.053,0,0,0-.06-.06.882.882,0,0,0-.3.39A.448.448,0,0,0,49.32-11.52Zm1.5-.78a.244.244,0,0,0,.06-.18q0-.06-.12-.18,0-.06-.12.18a.533.533,0,0,0,.06.24q-.3.12-.24.24a.533.533,0,0,1,.06.24A2.631,2.631,0,0,0,50.82-12.3Zm9,11.04q.3.12.36.06a2.34,2.34,0,0,0,.24-.42A5.871,5.871,0,0,1,59.82-1.26ZM68.88-13.2q0,.06.03.06t.03.06a1.193,1.193,0,0,1,.3-.39.552.552,0,0,0,.18-.45Zm1.92,1.74q-.36-.18-.48.12,0,.06-.24.3a2.909,2.909,0,0,1-.36.42l.12.12Zm1.56-.84a2.507,2.507,0,0,0,.12-.42q-.3,0-.27.12A1.035,1.035,0,0,0,72.36-12.3Zm-4.74-7.74q.18.6-.36.6A5.872,5.872,0,0,1,67.62-20.04ZM94.5-22.8v.12a1.264,1.264,0,0,0-.03.72,1.016,1.016,0,0,1-.09.72,1.285,1.285,0,0,1,.09.81q-.09.39-.21.81a8.84,8.84,0,0,1-.3.96,8.837,8.837,0,0,0-.3.96,5.472,5.472,0,0,1-.57,1.47q-.39.69-.81,1.35-.48.84-.96,1.59a10.534,10.534,0,0,1-1.08,1.41q-.48.54-.96,1.11a10.145,10.145,0,0,1-1.02,1.05,8.39,8.39,0,0,1-.9.78l-.96.72a3.092,3.092,0,0,1-.39.33q-.21.15-.45.33a.347.347,0,0,1-.06.24.346.346,0,0,1-.24.12q-.3-.06-.36.18a.839.839,0,0,1-.45.39,1.893,1.893,0,0,0-.57.33,5.991,5.991,0,0,1-.6.54,4.126,4.126,0,0,0-.39.3,2.205,2.205,0,0,1-.45.3q-.18.12-.42.27t-.48.27a2.419,2.419,0,0,1-.39.21q-.21.09-.45.21-.36.12-.75.24t-.81.24a.485.485,0,0,1-.3.03,1.886,1.886,0,0,0-.3-.03.47.47,0,0,1-.12.09.47.47,0,0,0-.12.09q.12.18-.12.42a.489.489,0,0,0-.12.36v.42a2.7,2.7,0,0,0-.03.69,2.189,2.189,0,0,1-.03.63,5.167,5.167,0,0,1-.03.57q-.03.27-.09.57a6.614,6.614,0,0,0-.18.81q-.06.39-.12.81,0,.3.03.63a2.189,2.189,0,0,1-.03.63.533.533,0,0,0-.06.24,2.908,2.908,0,0,0,.36.42q.12.18.06.24a.94.94,0,0,1-.24.18q0-.18-.12-.18-.12-.06-.18,0h-.06a3.608,3.608,0,0,1-.12.6l-.06.12a3.056,3.056,0,0,1,.12,1.47,6.08,6.08,0,0,0-.06,1.47.791.791,0,0,1-.03.48,4.42,4.42,0,0,0-.15.48h-.12a.7.7,0,0,0,.12.18.7.7,0,0,1,.12.18q.12.18.06.24a7.732,7.732,0,0,1-.06.96,7.732,7.732,0,0,0-.06.96,7.032,7.032,0,0,0,.06.93q.06.45.12.93v.72a4.372,4.372,0,0,0,.06.72,10.048,10.048,0,0,0,.36,2.1,9.38,9.38,0,0,0,.33,1.29q.21.63.39,1.29a.318.318,0,0,1,0,.27q-.06.15-.12.27a1.647,1.647,0,0,0-.21-.09,1.645,1.645,0,0,1-.21-.09.47.47,0,0,0-.12-.09.47.47,0,0,1-.12-.09,4.4,4.4,0,0,0,.06.9.483.483,0,0,1-.21.06.483.483,0,0,0-.21.06q-.66.18-.84-.36a1.08,1.08,0,0,0-.66-.66,1.707,1.707,0,0,1-.36-.3.053.053,0,0,1-.06-.06.053.053,0,0,0-.06-.06q-.42.06-.57-.18a3.4,3.4,0,0,1-.27-.54.753.753,0,0,0-.78-.6q-.36-.06-.42-.24a1.514,1.514,0,0,0-.18-.36,1.4,1.4,0,0,1-.21-.27,1.4,1.4,0,0,0-.21-.27.94.94,0,0,1-.18-.24.531.531,0,0,1-.15-.24q-.03-.12-.21-.12-.06,0-.18-.42-.48.06-.6-.48a7.067,7.067,0,0,0-.27-.69,2.91,2.91,0,0,1-.21-.63,2.807,2.807,0,0,0-.21-.81,2.744,2.744,0,0,1-.21-.75q-.06-.48-.09-.87t-.09-.81l-.18-1.44V8.58q.24-.42.06-.66a.461.461,0,0,1,0-.33,1.287,1.287,0,0,0,.06-.33q0-.42-.03-.78t-.03-.78a15.037,15.037,0,0,1,.18-2.22q0-.06.3-.24V2.91a1.86,1.86,0,0,0-.06-.45.346.346,0,0,0-.12-.24q-.06-.12-.12-.27a.737.737,0,0,1-.06-.27V1.14L70.02.9a.632.632,0,0,1-.24-.54q0-.36-.03-.72t-.03-.72a4.386,4.386,0,0,1,.03-.54q.03-.24.09-.54a.665.665,0,0,0-.03-.21.665.665,0,0,1-.03-.21q0-.36.03-.75t.03-.75q.06-.48.09-.93t.03-.93A.347.347,0,0,0,69.72-6l-.06-.06a2.908,2.908,0,0,1,.42-.36V-6.9a.6.6,0,0,1-.84-.24.136.136,0,0,1-.03-.15.665.665,0,0,0,.03-.21,2.631,2.631,0,0,1,.3-.54.664.664,0,0,1,.78-.42q.12-.18.24-.39a.568.568,0,0,0,0-.51.566.566,0,0,1-.03-.33q.03-.21.33-.33v-.3q-.3-.36.12-.66a.3.3,0,0,0,.15-.24,1.066,1.066,0,0,1,.09-.3,1.522,1.522,0,0,1,.36-.72q-.06,0,.12-.18a.94.94,0,0,1,.24-.18q.12-.12.12-.18a1.762,1.762,0,0,0,.12-.66,3.371,3.371,0,0,1,.06-.66.053.053,0,0,0-.06-.06,1.053,1.053,0,0,0-.12.3,1.536,1.536,0,0,0-.12.57.844.844,0,0,1-.3.57.533.533,0,0,1-.06-.24,4.386,4.386,0,0,0-.03-.54,1.1,1.1,0,0,1,.09-.54.325.325,0,0,0,.09-.3,1.886,1.886,0,0,1-.03-.3.842.842,0,0,0,.03-.39q-.03-.21.27-.33.06,0,.18-.42a.5.5,0,0,1-.06-.54,2.945,2.945,0,0,0,.12-.81,5.729,5.729,0,0,1,.06-.81v-.18q.12-.3.21-.51t.21-.45a.347.347,0,0,0,.06-.24,2.781,2.781,0,0,0,.06-.54,2.781,2.781,0,0,1,.06-.54q.06-.18.12-.33a1.065,1.065,0,0,0,.06-.39,3.852,3.852,0,0,1,.06-.69q.06-.33.12-.69t.09-.75a2.336,2.336,0,0,1,.15-.69.7.7,0,0,0,.09-.42,2.187,2.187,0,0,1-.03-.36.347.347,0,0,1,.06-.24,1.2,1.2,0,0,0,.3-.78v-.84a.347.347,0,0,0-.06-.24.309.309,0,0,1,.12-.48.668.668,0,0,1-.06-.3,1.534,1.534,0,0,1-.15-.42,1.534,1.534,0,0,0-.15-.42.752.752,0,0,1-.09-.39q.03-.09.27-.15a4.626,4.626,0,0,0,.24-.54l.24.12.24.12a.237.237,0,0,0-.03-.15q-.03-.03.03-.15a.2.2,0,0,0,.06-.15q0-.09.12-.09.06-.06.3.06l.27.27a.842.842,0,0,0,.33.21.538.538,0,0,1,.36.36,2.345,2.345,0,0,0,.18.48l.15.15a.694.694,0,0,0,.15.09.844.844,0,0,1,.72.72.192.192,0,0,0,.12.18.94.94,0,0,1,.24.18l.18-.36a.47.47,0,0,1,.42.54q-.06.36.24.24a.344.344,0,0,1,.42.18,1.236,1.236,0,0,0,.6.48.542.542,0,0,1,.3.48.986.986,0,0,0,.03.24,1.262,1.262,0,0,1,.03.3,4.524,4.524,0,0,0,.51-.6,4.027,4.027,0,0,1,.45-.54,3.274,3.274,0,0,1,.27-.24,3.274,3.274,0,0,0,.27-.24l.42-.42.12-.06a.8.8,0,0,0,.21-.15.8.8,0,0,1,.21-.15,2.359,2.359,0,0,0,.81-.66,1.836,1.836,0,0,1,.81-.6.4.4,0,0,1,.42,0q.24.06.18-.18-.06-.3.3-.42a2.054,2.054,0,0,0,.42-.15,1.142,1.142,0,0,0,.3-.21q.3-.12.6-.27a.834.834,0,0,1,.66-.03.94.94,0,0,0,.24.18,2.48,2.48,0,0,1-.48.15.924.924,0,0,0-.36.15h.6a.122.122,0,0,1,.09.03.237.237,0,0,0,.15.03.346.346,0,0,0,.24.12,1.478,1.478,0,0,1,1.44.48q.18-.3.42,0,.42.42.81.84a2.174,2.174,0,0,0,1.05.6,1.124,1.124,0,0,1,.36.21q.18.15.36.33.12.18.24.39t.24.39q.12.12.18.12a2.825,2.825,0,0,1,.9.78,2.3,2.3,0,0,1,.15.51,4.47,4.47,0,0,0,.09.45v.12q.3.06.27.24a.739.739,0,0,0,.03.36q.42.12.48.42,0,.06.09.09A.591.591,0,0,1,94.5-22.8Zm-7.08-3.18-.48.36a6.322,6.322,0,0,1-.54.36.881.881,0,0,0,.66-.18,4.317,4.317,0,0,0,.66-.54.418.418,0,0,1-.18-.03.418.418,0,0,0-.18-.03A.053.053,0,0,1,87.42-25.98Zm-1.14-2.46a8.758,8.758,0,0,0-1.14.48l.06.12a4.983,4.983,0,0,0,.57-.27,4.983,4.983,0,0,1,.57-.27Zm-.42,3.72q.42,0,.48-.3a2.848,2.848,0,0,0-.66-.06.329.329,0,0,1,.12.21A.2.2,0,0,0,85.86-24.72Zm.3.48a2.253,2.253,0,0,0-.24-.21.4.4,0,0,0-.24-.09,1.237,1.237,0,0,0-.48.24q0,.12.06.12h.39A2.669,2.669,0,0,0,86.16-24.24Zm-1.8.3.06.12.54-.36a.173.173,0,0,0-.06-.12ZM83.28-20.7q-.06.18-.12.33a1.839,1.839,0,0,1-.18.33.173.173,0,0,1,.12.06q.12-.48.45-.54a.936.936,0,0,0,.57-.36.439.439,0,0,1,.12-.66,3.405,3.405,0,0,0,.54-.54q.12-.18.24-.39t.24-.45a1.389,1.389,0,0,1,.3-.18l.36-.36a.94.94,0,0,0,.18-.24,3.975,3.975,0,0,0,.51-.48,3.976,3.976,0,0,1,.51-.48.213.213,0,0,0-.18-.03.266.266,0,0,1-.12.03l-.24.12q-.3,0-.24.3a.15.15,0,0,1,0,.24,5.871,5.871,0,0,1-.6.36q-.06-.06-.06-.09t-.06-.09q0,.42-.36.3-.06-.06-.24.12a.854.854,0,0,0-.15.18.325.325,0,0,1-.15.12.806.806,0,0,0-.24.72v.06a1.624,1.624,0,0,1-.96.96l-.06.12Zm-.84-.78a2.418,2.418,0,0,0-.21.39,2.419,2.419,0,0,1-.21.39.772.772,0,0,0,.54-.72A.173.173,0,0,0,82.44-21.48Zm-.6,3a.591.591,0,0,1-.21.15.591.591,0,0,0-.21.15q.24.24.33.18a1.454,1.454,0,0,0,.21-.18q0-.12.06-.15a.325.325,0,0,0,.12-.15q.24-.3.42-.57t.42-.57v-.06q0-.18-.06-.18a.347.347,0,0,0-.24.06,2.383,2.383,0,0,1-.3.36.89.89,0,0,0-.24.42A2.631,2.631,0,0,1,81.84-18.48Zm-.48-1.68a.351.351,0,0,0-.03.45.351.351,0,0,1-.03.45q.12-.12.18-.12a.173.173,0,0,0,.12-.06.533.533,0,0,1,.06-.24q-.3,0-.24-.18A.272.272,0,0,0,81.36-20.16Zm-1.08,5.1a5.3,5.3,0,0,0,.3-.57.853.853,0,0,0,0-.63.053.053,0,0,1-.06.06,1.052,1.052,0,0,1-.12.3.173.173,0,0,1,.06.12q-.12.12-.18.12v.54ZM74.64,3.3q0,.06.03.06t.03.06a.533.533,0,0,0,.06-.24.533.533,0,0,1,.06-.24.173.173,0,0,1-.12-.06,1.052,1.052,0,0,0-.12.3A.173.173,0,0,0,74.64,3.3ZM72.96-8.16q.06,0,.06-.03t.06-.03v-.36q0,.06-.12.18Zm3,7.5V-.6Zm1.02-22.08q-.06.18-.09.3t-.09.3a1.8,1.8,0,0,0,.33-.3Q77.16-22.5,76.98-22.74Zm-.72-.9a1.416,1.416,0,0,0-.3.66,4.372,4.372,0,0,0-.06.72l.12.12q.06-.42.09-.78A3.08,3.08,0,0,1,76.26-23.64Zm-3.66,7.2a2.352,2.352,0,0,1-.24.54q.24.12.27.03A2.079,2.079,0,0,0,72.6-16.44Zm12.18,6.06a2.306,2.306,0,0,0,.39-.36q.15-.18-.03-.48a6.856,6.856,0,0,0-.66.6A1.287,1.287,0,0,0,84.78-10.38ZM87.3-20.7a1.961,1.961,0,0,1,.12-.21,1.961,1.961,0,0,0,.12-.21l.18-.72q.12-.48.27-.9a4.228,4.228,0,0,0,.21-.9.418.418,0,0,0-.03-.18L88.08-24l-.24.24a2.158,2.158,0,0,0-.33.27.842.842,0,0,1-.33.21,1.05,1.05,0,0,0-.6.42,2.215,2.215,0,0,1-.63.78,2.215,2.215,0,0,0-.63.78,7.436,7.436,0,0,1-.66.9,7.437,7.437,0,0,0-.66.9l-.36.36a1.6,1.6,0,0,0-.3.42.6.6,0,0,0-.06.27.373.373,0,0,1-.12.27,8.4,8.4,0,0,1-.6,1.2l-.06.06a.434.434,0,0,0-.27.3,2.369,2.369,0,0,1-.09.36.753.753,0,0,0-.18.3,1.515,1.515,0,0,1-.18.36,7.646,7.646,0,0,0-.48,1.02,2.634,2.634,0,0,0-.18.45.544.544,0,0,1-.36.33l-.24.24a.346.346,0,0,0-.12.24,2.629,2.629,0,0,1-.3.63q-.18.27-.36.57.3-.18.63-.36a1.623,1.623,0,0,0,.57-.54q0-.12.18-.12a.623.623,0,0,0,.42-.24l.24-.36a.649.649,0,0,1,.3-.24,1.207,1.207,0,0,0,.51-.39q.21-.27.45-.57t.42-.54a5.2,5.2,0,0,1,.48-.54,4.384,4.384,0,0,1,.51-.54,4.385,4.385,0,0,0,.51-.54q.42-.6.75-1.17t.75-1.17a.106.106,0,0,1,.12-.12,1.129,1.129,0,0,0,.54-.78Zm.36,8.7q.18-.18.33-.36t.33-.36q-.06,0-.06-.03t-.06-.03a2.384,2.384,0,0,1-.3.36,2.383,2.383,0,0,0-.3.36Zm2.88-14.22a2.142,2.142,0,0,1,.18.54.56.56,0,0,0,.42.42l-.12-.48-.12-.48Zm1.08,6.48a2.277,2.277,0,0,0,.15-.66,5.858,5.858,0,0,1,.09-.66l-.06-.06a3.08,3.08,0,0,0-.15.72,5.858,5.858,0,0,1-.09.66Zm1.5-4.14a.533.533,0,0,1,.06-.24.255.255,0,0,0,0-.24,2.629,2.629,0,0,0-.3-.63q-.18-.27-.42-.57a.173.173,0,0,1-.12.06q.06.24.12.42t.12.42a.7.7,0,0,0,.12.18q.06.06-.06.18-.06.06.09.3t.27.24a.053.053,0,0,1,.06-.06Zm.12,1.26q.54-.18.06-.48A1.248,1.248,0,0,1,93.24-22.62ZM68.4-6.06a2.254,2.254,0,0,1,.24-.21,2.253,2.253,0,0,0,.24-.21.987.987,0,0,1,.06.3,1.961,1.961,0,0,0-.21.12,1.962,1.962,0,0,1-.21.12q-.12,0-.12-.06Zm50.64,10.2a.342.342,0,0,1,.12.36,3.65,3.65,0,0,1-.42.54,3.917,3.917,0,0,1-.36.42,3.917,3.917,0,0,0-.36.42.862.862,0,0,1-.9.3,11.613,11.613,0,0,1-1.26-.3,2.343,2.343,0,0,1-1.08-.72.72.72,0,0,0-.36-.27,5,5,0,0,1-.48-.21,5.9,5.9,0,0,1-.9-.72q-.18-.12-.33-.24a1.062,1.062,0,0,0-.33-.18,1.178,1.178,0,0,1-.63-.39q-.21-.27-.45-.57a7.305,7.305,0,0,0-.6-.54,7.305,7.305,0,0,1-.6-.54,5.3,5.3,0,0,1-.54-.63,1.34,1.34,0,0,1-.24-.81q-.06-.36-.09-.72a2.181,2.181,0,0,1,.09-.78q0-.3-.03-.6a1.259,1.259,0,0,1,.09-.6q.06-.72.15-1.47t.21-1.47q.18-1.08.39-2.16t.45-2.16q.18-.78.33-1.56t.27-1.56q.12-.6.21-1.14a12.275,12.275,0,0,1,.27-1.2,8.2,8.2,0,0,1-.6.75,5.846,5.846,0,0,0-.54.69,10.235,10.235,0,0,1-.63.9,5.261,5.261,0,0,0-.57.9,7.608,7.608,0,0,0-.51.81q-.21.39-.51.87-.42,1.02-.84,2.01t-.84,2.01a9.995,9.995,0,0,0-.42.96,4.221,4.221,0,0,0-.24,1.02,2.75,2.75,0,0,1-.15.36,3.355,3.355,0,0,1-.21.36,3.526,3.526,0,0,0-.12.84,1.065,1.065,0,0,1-.06.39,1.839,1.839,0,0,1-.18.33,2.193,2.193,0,0,0-.15.57,2.193,2.193,0,0,1-.15.57,1.226,1.226,0,0,0-.06.39v.39a3.187,3.187,0,0,1-.03.45,1.167,1.167,0,0,0,.03.45,1.018,1.018,0,0,1-.45.09A3.12,3.12,0,0,1,104.1.6a1.645,1.645,0,0,1,.09.21,1.646,1.646,0,0,0,.09.21q-.06.12-.12.27a.8.8,0,0,1-.18.27.475.475,0,0,1-.3.06l-.18-.18a1.964,1.964,0,0,0-.48.12,6.881,6.881,0,0,0,.06-.84,3.526,3.526,0,0,1,.12-.84.578.578,0,0,0-.3.27q-.06.15-.12.33a2.75,2.75,0,0,1-.15.36.471.471,0,0,1-.33.24q-.12-.3-.18-.51a1.878,1.878,0,0,1-.06-.51H102a.786.786,0,0,1-.84.18q-.36-.18-.66-.3a1.6,1.6,0,0,1-.42-.3,1.6,1.6,0,0,0-.42-.3.106.106,0,0,0-.12-.12.486.486,0,0,1-.3-.09q-.12-.09-.3-.21a1.164,1.164,0,0,0-.54-.54,1.745,1.745,0,0,1-.66-.84,1.951,1.951,0,0,1-.66.09q-.18-.03-.48-.39-.24-.3-.48-.57t-.54-.57a.106.106,0,0,0-.12-.12q-.48,0-.36-.42-.06-.24.36-.24.06,0,.06-.12a.853.853,0,0,1,.12-.48.665.665,0,0,0-.21.03.665.665,0,0,1-.21.03,1.132,1.132,0,0,0-.06-.36l-.12-.36q-.12-.24.06-.36a.649.649,0,0,0,.18-.48.737.737,0,0,0-.06-.27.881.881,0,0,1-.06-.33,5.674,5.674,0,0,1,.3-2.64,3.207,3.207,0,0,0,.06-.63v-.69a2.449,2.449,0,0,1,.24-1.2,1.012,1.012,0,0,0,.12-.45,1.012,1.012,0,0,1,.12-.45,2.356,2.356,0,0,0,.12-.75,2.356,2.356,0,0,1,.12-.75,3.063,3.063,0,0,0,.15-.69,2.231,2.231,0,0,1,.15-.63q-.18-.12-.33-.21a1.4,1.4,0,0,1-.27-.21q.12,0,.12-.06v-.78a1.132,1.132,0,0,1-.06-.36.484.484,0,0,1,.24-.36.816.816,0,0,0,.12-.54,3.574,3.574,0,0,1,.06-.78,2.551,2.551,0,0,1,.36-.24q.48-.18.18-.48a1.042,1.042,0,0,1-.21-.33q-.09-.21.21-.39.12,0,.12-.18a1.623,1.623,0,0,1,.15-1.11,2.919,2.919,0,0,0,.33-1.05,1.033,1.033,0,0,1,.42-.9.235.235,0,0,0,.18-.24,4.372,4.372,0,0,1,.06-.72q.06-.36.12-.66v-.06a.85.85,0,0,0,.42-.69,1.847,1.847,0,0,1,.12-.69.531.531,0,0,0,.15-.24.531.531,0,0,1,.15-.24q-.3-.42,0-.66-.24-.3,0-.48a.867.867,0,0,0,.3-.72v-.54a1.474,1.474,0,0,1,.12-.54,5.163,5.163,0,0,1,.12-.96,5.509,5.509,0,0,0,.42-1.38,1.1,1.1,0,0,0,.09-.54,1.7,1.7,0,0,1,.03-.54l.24-.6.24-.6a.173.173,0,0,1,.06-.12,1.96,1.96,0,0,1-.06-1.26,3.3,3.3,0,0,0,.12-1.26,7.809,7.809,0,0,1,.3-.84h.12a.47.47,0,0,1-.09-.12.325.325,0,0,0-.15-.12.237.237,0,0,0-.03-.15.122.122,0,0,1-.03-.09q.06-.42.15-.81a3.591,3.591,0,0,0,.09-.81,1.881,1.881,0,0,0,.06-.81q-.06-.39-.12-.81a3.023,3.023,0,0,0,0-1.2,8.282,8.282,0,0,0-.18-1.74,6.839,6.839,0,0,0-.33-1.14,7.417,7.417,0,0,1-.33-1.08.166.166,0,0,1,.03-.21.8.8,0,0,0,.15-.21.967.967,0,0,1,.42.12l.24.12a1.041,1.041,0,0,0,.03-.42,2.187,2.187,0,0,1-.03-.36,1.03,1.03,0,0,0,.42-.06.848.848,0,0,1,.9.36,1.6,1.6,0,0,0,.6.54,3.922,3.922,0,0,1,.42.24.053.053,0,0,1,.06.06.053.053,0,0,0,.06.06q.42-.06.57.15a3.351,3.351,0,0,1,.27.45.583.583,0,0,0,.27.42,1.013,1.013,0,0,0,.51.12q.36,0,.42.18a.753.753,0,0,0,.18.3,3.515,3.515,0,0,0,.42.48q.12.12.12.18a.591.591,0,0,1,.15.21q.03.09.27.15.06,0,.18.36a.484.484,0,0,1,.6.36,2.388,2.388,0,0,0,.21.6,2.388,2.388,0,0,1,.21.6,1.018,1.018,0,0,0,.09.63,7.067,7.067,0,0,1,.27.69,2.9,2.9,0,0,0-.03.72,5.859,5.859,0,0,0,.09.66q0,.3.03.6t.09.6a.347.347,0,0,1-.06.24,1.576,1.576,0,0,1-.15.24q-.09.12.03.36a.318.318,0,0,1,0,.27.737.737,0,0,0-.06.27,1.668,1.668,0,0,0,0,.63,1.378,1.378,0,0,1-.06.69,3.371,3.371,0,0,0-.06.66,1.762,1.762,0,0,1-.12.66v.18a7.278,7.278,0,0,0-.06.9,3.045,3.045,0,0,1-.12.84v.18a2.417,2.417,0,0,1-.18.96l-.12.24a2.77,2.77,0,0,1-.03.39,2.77,2.77,0,0,0-.03.39,10.6,10.6,0,0,0-.27,1.29q-.09.63-.21,1.29a2.336,2.336,0,0,0-.15.69,1.07,1.07,0,0,1-.33.69v.06q0,.12.06.12.06.24-.24.42a1.051,1.051,0,0,0-.06.33.609.609,0,0,1-.12.33h.06a.347.347,0,0,1,.06.24,2.22,2.22,0,0,0-.15.54.7.7,0,0,1-.21.42.645.645,0,0,0-.12.36.407.407,0,0,1-.12.3.233.233,0,0,1,.06.27.737.737,0,0,0-.06.27.46.46,0,0,0-.06.18.46.46,0,0,1-.06.18,8.917,8.917,0,0,0-.36,1.56,28.749,28.749,0,0,0-.72,2.94l.06.06q.36-.48.48-.66a7.654,7.654,0,0,1,.69-.72,7.652,7.652,0,0,0,.69-.72l.54-.54a3.155,3.155,0,0,1,.6-.48,5.458,5.458,0,0,0,.6-.42q.48-.3.93-.63t.93-.69a.94.94,0,0,1,.24-.18l.24-.12q.48-.18.93-.36a7.208,7.208,0,0,1,.93-.3,1.205,1.205,0,0,1,.96.18q.3.18.63.39a7.168,7.168,0,0,1,.63.45v.06a1.08,1.08,0,0,0,.69.66,1.638,1.638,0,0,1,.81.6q.06.12.15.12a.483.483,0,0,1,.21.06.531.531,0,0,0,.24.15.531.531,0,0,1,.24.15,2.952,2.952,0,0,0,.42.45q.24.21.54.45a5.846,5.846,0,0,1,.87.66,1.771,1.771,0,0,1,.51,1.02q.06.42.09.84a2.411,2.411,0,0,1-.09.84q-.18,1.32-.42,2.58T118.32-12q-.3,1.2-.48,2.34t-.42,2.34L117.18-6l-.24,1.32q-.18,1.02-.33,1.98t-.27,1.92q-.06.6-.12,1.14l-.12,1.08a1.052,1.052,0,0,0,.12.3.244.244,0,0,1,.06.18,1.132,1.132,0,0,1,.06.36.668.668,0,0,0,.06.3,4.413,4.413,0,0,1,.48.18,1.576,1.576,0,0,0,.24-.15q.12-.09.12-.03a1.547,1.547,0,0,1,.33.3q.15.18.33.42.12-.12.21-.03l.21.21a3.092,3.092,0,0,0,.39.33A1.291,1.291,0,0,1,119.04,4.14Zm-15.96-16.2q.36-.24.33-.48a1.3,1.3,0,0,1,.03-.48h-.12a4.47,4.47,0,0,0-.09.45A2.3,2.3,0,0,1,103.08-12.06Zm-1.26,7.62q.06-.3.09-.54a2.22,2.22,0,0,1,.15-.54.244.244,0,0,1-.18-.06,1.536,1.536,0,0,0-.12.57,2.91,2.91,0,0,1-.06.57Zm.42-3.12q.3-.78.6-1.53t.6-1.53a.053.053,0,0,0-.06-.06,1.451,1.451,0,0,1-.42.75,1.436,1.436,0,0,0-.42.69q-.12.48-.18.87a6.614,6.614,0,0,1-.18.81Zm4.92-10.32a1.109,1.109,0,0,0,.51-.3q.15-.18.03-.3-.12.12-.27.3T107.16-17.88Zm.24-1.74a5.144,5.144,0,0,1-.66.66,2.386,2.386,0,0,0-.6.78,1.72,1.72,0,0,0,.72-.63Q107.1-19.2,107.4-19.62Zm-1.92,2.16q.66-.24.36-.6a.753.753,0,0,0-.18.3A.753.753,0,0,1,105.48-17.46Zm.3,1.32q.12-.12.27-.3t.39-.42a.8.8,0,0,0-.42.33Q105.9-16.32,105.78-16.14Zm.84,3.3a.481.481,0,0,0,.33-.42.481.481,0,0,1,.33-.42l-.12-.06a4.038,4.038,0,0,0-.66.84A.173.173,0,0,1,106.62-12.84Zm1.2-3.9a2.284,2.284,0,0,0,.42-.6,1.444,1.444,0,0,1,.15-.39q.09-.15.21-.33a14.368,14.368,0,0,0-2.34,2.58.943.943,0,0,0,.57-.36q.15-.24.27-.48a1.262,1.262,0,0,1,.54-.36A.244.244,0,0,0,107.82-16.74Zm.36-.48a6.543,6.543,0,0,0,.78-.3.921.921,0,0,0-.12-.36A2.583,2.583,0,0,1,108.18-17.22Zm1.62-1.68a.347.347,0,0,1,.06.24.533.533,0,0,1,.24-.06.533.533,0,0,0,.24-.06l-.06-.12v-.12A1.964,1.964,0,0,1,109.8-18.9Zm2.1,1.8q.12,0,.12-.24-.06,0-.06-.03t-.06-.03a14.6,14.6,0,0,0-1.23,1.26,13.94,13.94,0,0,0-1.05,1.38.244.244,0,0,0,.18-.06q.24-.3.42-.54a3.916,3.916,0,0,1,.36-.42,2.62,2.62,0,0,0,.6-.72A1.341,1.341,0,0,1,111.9-17.1Zm5.16,21.96.12-.24a.347.347,0,0,0-.24.06q-.3.18-.51.3a1.013,1.013,0,0,1-.51.12v.12a3.708,3.708,0,0,1,.57-.18A3.708,3.708,0,0,0,117.06,4.86ZM145.2-12.48l-.09.36-.09.36a.122.122,0,0,1-.03.09.122.122,0,0,0-.03.09q.18.3-.24.42a.484.484,0,0,0,.18.39q.18.15,0,.45,0-.06-.18.12a.836.836,0,0,1-.06-.36h-.06q-.12.84-.18,1.44,0,.12.24.36l.06-.06q0,.48-.03.93a4.875,4.875,0,0,0,.03.93V-5.7q0,.6.06,1.26a.538.538,0,0,0,.09.27,1.4,1.4,0,0,0,.21.27.624.624,0,0,1,.24.03q.06.03-.12.33-.12.24.03.3a.379.379,0,0,1,.21.18q.42-.24.48-.18a.2.2,0,0,1,.18.09,1.455,1.455,0,0,0,.18.21h.3l.12.12a2.532,2.532,0,0,0-.48.66.564.564,0,0,0-.15.33.933.933,0,0,1-.15.39q-.18.36-.72.24a4.048,4.048,0,0,0-.48-.09,4.048,4.048,0,0,1-.48-.09,2.253,2.253,0,0,1-.24.21,2.253,2.253,0,0,0-.24.21.8.8,0,0,1-.27.18q-.15.06-.09.36,0,.3-.24.3a.878.878,0,0,1-.54-.18.412.412,0,0,1-.09-.21,1.39,1.39,0,0,1-.03-.27.967.967,0,0,1-.12-.42q-.06.06-.06.09t-.06.09a.173.173,0,0,1-.12.06.975.975,0,0,1-.48-.42.244.244,0,0,1-.06-.18.533.533,0,0,0-.06-.24,1.454,1.454,0,0,0-.18.21.453.453,0,0,1-.18.15,2.159,2.159,0,0,0-.27-.33,1.486,1.486,0,0,1-.27-.39.636.636,0,0,0-.45-.27,2.225,2.225,0,0,1-.45-.09l-.42.42a.624.624,0,0,0-.03-.24.418.418,0,0,1-.03-.18q.12-.48-.48-.72a1.336,1.336,0,0,1-.42-.33.805.805,0,0,0-.42-.27.637.637,0,0,1-.45-.42q-.09-.3-.21-.66a2.848,2.848,0,0,1,.06-.66.122.122,0,0,1,.03-.09.122.122,0,0,0,.03-.09,1.731,1.731,0,0,1-.12-.87,4.935,4.935,0,0,0,.06-.75.122.122,0,0,0-.03-.09.237.237,0,0,1-.03-.15,5.87,5.87,0,0,1-.36.6,9.435,9.435,0,0,0-.45.9,9.435,9.435,0,0,1-.45.9q-.3.48-.63.96t-.63,1.02a5.45,5.45,0,0,0-.45.66q-.21.36-.45.72-.42.54-.81,1.02t-.81.96a.764.764,0,0,1-.66.3q-.06,0-.09.15a.281.281,0,0,1-.15.21,7.166,7.166,0,0,1-.63.45,1.367,1.367,0,0,1-.75.21l-.48.12a1.973,1.973,0,0,1-.48.06.255.255,0,0,1-.24,0l-.24-.12a.8.8,0,0,0-.66-.06h-.18a4.983,4.983,0,0,1-.57-.27,2.307,2.307,0,0,1-.51-.39,1.061,1.061,0,0,0-.48-.3,4.255,4.255,0,0,1-.54-.18.625.625,0,0,1-.36-.06,1.1,1.1,0,0,0-.45-.3q-.21-.06-.51-.12a.967.967,0,0,1-.42-.12,3.58,3.58,0,0,1-.48-.45,1.938,1.938,0,0,0-.48-.39.523.523,0,0,0-.27-.15.523.523,0,0,1-.27-.15,6.893,6.893,0,0,1-.96-.9l-.36-.48a1.355,1.355,0,0,1-.24-.6q-.12-.6-.24-1.17a2.882,2.882,0,0,1,0-1.17.975.975,0,0,0,0-.48l-.12-.48a1.576,1.576,0,0,1,.15-.24q.09-.12-.15-.3v-.12a17.021,17.021,0,0,1,.6-2.16q.12-.54.27-1.11a10.886,10.886,0,0,1,.33-1.05,7,7,0,0,1,.54-1.8,10.886,10.886,0,0,0,.33-1.05q.15-.57.27-1.05a3.42,3.42,0,0,0,.18-.6.93.93,0,0,1,.36-.54.325.325,0,0,0,.24-.15q.12-.15-.12-.33-.06,0-.06-.24a4.983,4.983,0,0,1,.27-.57,4.982,4.982,0,0,0,.27-.57.346.346,0,0,1,.24-.12,2.22,2.22,0,0,0,.15-.54q.03-.24.15-.3a1.31,1.31,0,0,0,.45-.42q.15-.24.33-.54a.173.173,0,0,1,.12-.06.173.173,0,0,0,.12-.06.491.491,0,0,0,.18-.3.343.343,0,0,1,0-.39q.12-.15.24-.33.3-.42.54-.75t.54-.75a3.975,3.975,0,0,1,.48-.51,1.318,1.318,0,0,0,.36-.51,2.493,2.493,0,0,1,.87-1.05,11.176,11.176,0,0,0,1.05-.81,5.991,5.991,0,0,1,.54-.6l.06-.06a.838.838,0,0,0,.66-.27,2.31,2.31,0,0,1,.54-.45,1.173,1.173,0,0,1,.24-.09.547.547,0,0,1,.3.03.334.334,0,0,0,.36-.3q.12-.42.48-.12l.06.06a2.2,2.2,0,0,1,.42-.36,1.052,1.052,0,0,1,.3.12.694.694,0,0,1-.09.15.694.694,0,0,0-.09.15,5.539,5.539,0,0,0,.78.06,5.539,5.539,0,0,1,.78.06v.18a.47.47,0,0,0-.09.12.47.47,0,0,1-.09.12q.48.12.6-.18.12-.18.51-.12a.719.719,0,0,1,.51.24,2.742,2.742,0,0,1,.39.48,2.74,2.74,0,0,0,.39.48.48.48,0,0,0,.36.21,2.2,2.2,0,0,1,.42.09q.3.12.3.18.3.18-.18.42a1.973,1.973,0,0,0,.48.06q.48-.18.72.36l.18.18a.94.94,0,0,1,.24-.18,2.253,2.253,0,0,1-.21-.24,2.253,2.253,0,0,0-.21-.24.856.856,0,0,1,.51.03q.21.09.45.21l.36.24a3.922,3.922,0,0,0,.42.24.37.37,0,0,0-.21.06.37.37,0,0,1-.21.06v.06a4.655,4.655,0,0,1,.6.24.47.47,0,0,0,.09-.12.854.854,0,0,1,.15-.18,1.051,1.051,0,0,1,.06.33.6.6,0,0,0,.06.27q.3-.12.21-.3l-.15-.3q.06-.12.12-.12a3.515,3.515,0,0,0,.48.42.6.6,0,0,1,.42.66q-.06.3.24.3.42,0,.3.42a.986.986,0,0,0,.03.24.82.82,0,0,1,.03.18,1.3,1.3,0,0,1,.48.24.715.715,0,0,0,.84-.06q0-.06.18-.06a.346.346,0,0,1,.24.12q.12.12.24-.18h.42l.36.12q.18.06.42.12l.06.12a.668.668,0,0,0-.06.3.407.407,0,0,1-.12.3.146.146,0,0,1-.18.09.339.339,0,0,0-.24.03v.24a1.035,1.035,0,0,1,.3-.15q.12-.03.24.27l.12-.24.18-.18.12.24q-.12.72-.24,1.38t-.24,1.38q-.12.48-.21.99t-.21.99a2.328,2.328,0,0,0-.12.3,1.133,1.133,0,0,0-.06.36q-.12.6-.27,1.26t-.27,1.32a.449.449,0,0,0-.06.39A.449.449,0,0,1,145.2-12.48Zm-9.06-13.2a2.774,2.774,0,0,1-.33.09,2.775,2.775,0,0,0-.33.09.373.373,0,0,1,.12.27.373.373,0,0,0,.12.27,1.33,1.33,0,0,0,.06-.42.854.854,0,0,1,.18-.15l.18-.09Zm-.66-1.2a3.522,3.522,0,0,0-.33.18,1.454,1.454,0,0,0-.21.18v.06q.48-.12.66-.18Zm-.72,1.2q0,.06.12.06a5.937,5.937,0,0,1,.9-.3q-.12-.12-.51-.06a.972.972,0,0,0-.51.18Zm-2.58,3.96q-.3.3-.51.54t-.45.54a.905.905,0,0,0,.63-.36A1.076,1.076,0,0,0,132.18-21.72Zm-4.02,8.1-.36.96q-.18.48-.36,1.02.24-.12.45-.75A5.675,5.675,0,0,0,128.16-13.62Zm1.8,8.76a7.047,7.047,0,0,1,.36-.66q-.06-.06-.09-.06t-.09-.06a7.047,7.047,0,0,1-.36.66q.06.06.09.06T129.96-4.86Zm2.94-4.62.12-.24q-.54.06-.6.72a1.514,1.514,0,0,0,.18-.36Q132.66-9.54,132.9-9.48Zm0,1.68a1.671,1.671,0,0,0,.12-.36q0-.06-.12-.18-.18.18-.18.24A.878.878,0,0,0,132.9-7.8Zm.6,4.38a1.39,1.39,0,0,1,.03-.27q.03-.15-.27-.15.24.66-.3.72l-.06.06a.933.933,0,0,0-.15.39.933.933,0,0,1-.15.39.122.122,0,0,1-.03.09.237.237,0,0,0-.03.15.682.682,0,0,0,.33-.57q.03-.39.51-.27A1.9,1.9,0,0,0,133.5-3.42Zm-.18-.9a1.425,1.425,0,0,0,.24-.66.572.572,0,0,0-.36.6A.173.173,0,0,1,133.32-4.32Zm.18-5.58a10.042,10.042,0,0,0,.51-1.05q.21-.51.51-1.11a1.092,1.092,0,0,1-.48.36.347.347,0,0,1-.24.06.47.47,0,0,1,.09.12.47.47,0,0,0,.09.12,3.547,3.547,0,0,1-.3.54q-.06.06-.3-.06-.12.24-.36.84A4.413,4.413,0,0,0,133.5-9.9Zm.72-6a.325.325,0,0,0,.12.15.47.47,0,0,1,.12.09,1.82,1.82,0,0,1,.54-.06,7.416,7.416,0,0,1,.36-1.14q-.12,0-.12-.06a4.5,4.5,0,0,0-.48.84Q134.34-16.38,134.22-15.9Zm.78,5.82h-.06v-.12a2.428,2.428,0,0,1-.27.51,3.35,3.35,0,0,0-.27.45l.06.06Zm.36,3.24q.3.12.33-.09a.564.564,0,0,1,.15-.33.489.489,0,0,1-.36.12Q135.24-7.14,135.36-6.84Zm.6-3.18h.24q.12,0,.24-.18a1.053,1.053,0,0,0-.3-.12.347.347,0,0,0-.24.06v.12Q135.9-10.02,135.96-10.02Zm.36-4.98q-.36,0-.24.48a.491.491,0,0,0,.18.3h.12A3.105,3.105,0,0,0,136.32-15Zm.36,6.42a3.887,3.887,0,0,0,.21-.51q.09-.27.21-.57h-.12q-.18.3-.39.63a7.169,7.169,0,0,1-.45.63q.06,0,.06.03t.06.03a1.645,1.645,0,0,1,.21-.09A.591.591,0,0,0,136.68-8.58Zm-.12-7.2a1.524,1.524,0,0,0,.18.6,1.708,1.708,0,0,1,.3-.36.346.346,0,0,0-.24-.12A.346.346,0,0,1,136.56-15.78Zm.78,5.58a.523.523,0,0,0,.15-.27.946.946,0,0,1,.15-.33.415.415,0,0,0-.36.33,1.323,1.323,0,0,1-.18.45Q137.34-10.02,137.34-10.2Zm.78-3.48a1.031,1.031,0,0,0,.21-.51,5.783,5.783,0,0,0,.03-.63l-.24.48q-.24.06-.27.21a2.776,2.776,0,0,1-.09.33.461.461,0,0,0,.18.06A.461.461,0,0,1,138.12-13.68Zm.3-4.38a2.63,2.63,0,0,0,.3-.54h-.18a1.455,1.455,0,0,1-.21.18Q138.24-18.36,138.42-18.06Zm.42-.54q.24-.36.42-.66,0-.06-.03-.06t-.03-.06q-.06.3-.3.3t-.12.36q0,.06.03.06T138.84-18.6Zm.78,7.8a.053.053,0,0,0,.06.06h.06l-.18-1.08q-.3.18-.18.39a1.765,1.765,0,0,1,.18.45Q139.56-10.8,139.62-10.8Zm-.06-7.86a1.487,1.487,0,0,0,.15-.45.933.933,0,0,1,.15-.39l-.06-.06q-.12.24-.36.84.06,0,.06.03T139.56-18.66Zm.9-4.26a.387.387,0,0,0,0-.3.392.392,0,0,0-.18-.18.8.8,0,0,1-.21-.15.166.166,0,0,1-.03-.21.173.173,0,0,1-.12-.06.173.173,0,0,1-.12-.06q-.36,0-.72.03t-.78.03a.173.173,0,0,1-.12-.06.3.3,0,0,0-.36.12q-.24.48-.54.06a4.192,4.192,0,0,0-.54.48.244.244,0,0,1-.18.06q-.24-.24-.36-.06l-.24.36a4.2,4.2,0,0,0-.45.39,2.631,2.631,0,0,1-.51.39l-.36.36a6.271,6.271,0,0,0-.78.96.8.8,0,0,1-.42.06,1.858,1.858,0,0,0-.12.36,1.333,1.333,0,0,1-.18.42,2.206,2.206,0,0,1-.3.45,3.749,3.749,0,0,0-.36.51.377.377,0,0,0-.09.15.273.273,0,0,1-.15.15,6.22,6.22,0,0,1-.45.51,2.631,2.631,0,0,0-.39.51,10.537,10.537,0,0,0-.6,1.32,12.035,12.035,0,0,1-.72,1.44,8.812,8.812,0,0,1-.36.84,4.511,4.511,0,0,0-.3.78q-.3.9-.66,1.77t-.66,1.83a1.133,1.133,0,0,0-.06.36.407.407,0,0,1-.12.3.519.519,0,0,0-.18.36,1.132,1.132,0,0,1-.06.36,1.33,1.33,0,0,1-.06.42q-.12.6-.21,1.14t-.15,1.2a.437.437,0,0,1-.48.42.747.747,0,0,1,.18.33,1.384,1.384,0,0,0,.18.39.053.053,0,0,1,.06-.06l.24-.36a1.967,1.967,0,0,1,.24-.3,1.325,1.325,0,0,0,.66-.9q0-.06.03-.06t.03-.06a2.622,2.622,0,0,1,.39-.42,1.8,1.8,0,0,0,.33-.36,3.889,3.889,0,0,0,.21-.51,1,1,0,0,1,.21-.39,1.828,1.828,0,0,0,.42-.6l.24-.6a2.37,2.37,0,0,1,.36-.75,4.888,4.888,0,0,0,.42-.69,4.5,4.5,0,0,1,.48-.84,5.789,5.789,0,0,1,.66-.96q.24-.48.45-.99t.45-.99q.18-.42.42-.06a.377.377,0,0,0,.09-.15.377.377,0,0,1,.09-.15q-.12-.42-.06-.48a.967.967,0,0,1,.12-.42,3.291,3.291,0,0,0,.18-.42,3.291,3.291,0,0,1,.18-.42,3.353,3.353,0,0,0,.21-.36,3.353,3.353,0,0,1,.21-.36l.18-.72.72-.9a6.318,6.318,0,0,1,.36-.54l.36-.48a.591.591,0,0,1,.21-.15.591.591,0,0,0,.21-.15l.18.54q.24-.3.42-.51t.36-.45q.06,0,.06.03t.06.03a1.018,1.018,0,0,1-.27.57,2.631,2.631,0,0,0-.39.51,2.465,2.465,0,0,1-.3.69q-.18.27-.36.57a1.33,1.33,0,0,0,.42.06h.24a.192.192,0,0,0,.18-.12,2.19,2.19,0,0,0,.66-.78l.21-.42a1.142,1.142,0,0,1,.21-.3,2.631,2.631,0,0,1,.39-.51,2.631,2.631,0,0,0,.39-.51l.3-.12a2.427,2.427,0,0,1-.27.51q-.15.21-.27.39a.053.053,0,0,1,.06.06.531.531,0,0,1,.24-.15.531.531,0,0,0,.24-.15.484.484,0,0,1,.06.21.484.484,0,0,0,.06.21.515.515,0,0,0,.3-.54.536.536,0,0,1,.48-.54q-.06-.18-.09-.3a1.173,1.173,0,0,0-.09-.24,1.286,1.286,0,0,0,.24-.45q.12-.33,0-.39-.12-.12-.12-.18v-.12q.06-.12.15-.27A1.4,1.4,0,0,1,140.46-22.92Zm-.6-1.62q.24.12.45.24a4.128,4.128,0,0,0,.51.24Q140.52-24.84,139.86-24.54Zm.9,13.02q-.42.12-.12.3,0,.12.18.12A1.03,1.03,0,0,1,140.76-11.52Zm.18,1.98a2.186,2.186,0,0,1,.03-.36q.03-.18.09-.48Q140.58-10.14,140.94-9.54Zm.66-6.24a1.885,1.885,0,0,0-.03-.3,2.186,2.186,0,0,1-.03-.36,9.484,9.484,0,0,1-.3,1.14,2.609,2.609,0,0,0-.06,1.26l.3-.3a5.364,5.364,0,0,0,.06-.75A4.2,4.2,0,0,1,141.6-15.78Zm.3-1.62a1.534,1.534,0,0,0,.15-.42.924.924,0,0,1,.15-.36h-.12a.753.753,0,0,0-.18.3,3.291,3.291,0,0,1-.18.42.122.122,0,0,1,.09.03A.122.122,0,0,0,141.9-17.4Zm.36-1.62a1.259,1.259,0,0,0,.09-.6.6.6,0,0,1,.27-.54q-.36,0-.24-.27t-.06-.39a5.369,5.369,0,0,0-.15.84,3.08,3.08,0,0,1-.15.72.47.47,0,0,0,.12.09A.325.325,0,0,1,142.26-19.02Zm.42-3,.12-.36a.464.464,0,0,0-.12-.42,1.226,1.226,0,0,0-.06.39,1.226,1.226,0,0,1-.06.39Zm.66,13.56q0-.3-.03-.63t-.03-.63h-.12a1.668,1.668,0,0,1,0,.63,1.123,1.123,0,0,0,.06.63Zm-9.12-19.38-.12-.24-.12-.24a2.186,2.186,0,0,0,.36-.03.739.739,0,0,1,.36.03,5.936,5.936,0,0,1,.9.3l.24.24a4.4,4.4,0,0,1-.84-.18.794.794,0,0,0-.72.12Zm5.1,2.04q-.48.3-.6-.3Q139.08-26.22,139.32-25.8Zm4.62,2.88q-.48-.12-.3-.48,0-.06.24-.06a1.39,1.39,0,0,0,.03.27A1.39,1.39,0,0,1,143.94-22.92Zm-6.72,1.5a3.275,3.275,0,0,0,.27.24q.15.12.15.18-.12.6-.54.66a.333.333,0,0,1,.06-.42q.18-.18-.12-.3Zm1.14.66q.06-.24.15-.27t.75-.15v.36a.4.4,0,0,0-.39-.06Q138.6-20.82,138.36-20.76Zm31.38-3.72a1.539,1.539,0,0,1,.72,1.05q.06.57.18,1.17,0,.48-.03.93a5.285,5.285,0,0,1-.15.93,1.523,1.523,0,0,1-.15.63q-.15.33-.27.63a1.226,1.226,0,0,0-.06.39.689.689,0,0,1-.12.39,1.03,1.03,0,0,0-.06.42,3.526,3.526,0,0,0-.12.84q0,.18.06.18a3.42,3.42,0,0,0-.18.6,3.42,3.42,0,0,1-.18.6,2.384,2.384,0,0,1,.36.3.425.425,0,0,1-.3.42q-.12,0-.18.18h.36a.665.665,0,0,1-.03.21.665.665,0,0,0-.03.21.122.122,0,0,0,.03.09.237.237,0,0,1,.03.15q-.12.54-.24,1.05t-.24,1.05q0,.06-.12.18h.06a1.262,1.262,0,0,1-.03.3.986.986,0,0,0-.03.24v.36q-.06.42-.12.78a1.416,1.416,0,0,1-.3.66q-.42.24.06.54a.053.053,0,0,1,.06.06q-.06.48-.15.9t-.15.84a4.094,4.094,0,0,0-.15.81,5.3,5.3,0,0,1-.15.87,9.259,9.259,0,0,1-.06,1.02A9.259,9.259,0,0,0,168-3.48a1.515,1.515,0,0,0,0,.6,3.727,3.727,0,0,1,.06.72.921.921,0,0,1,.36-.12v.3a.173.173,0,0,0,.12.06.461.461,0,0,1,.18.06h.18a.292.292,0,0,1,.36.18.544.544,0,0,1,.48.54.94.94,0,0,1,.24-.18q.3.42-.12.54a1,1,0,0,0-.21.36,2.057,2.057,0,0,1-.21.42l-2.52.36q0-.18-.06-.18-.24-.06-.45-.12t-.51-.12a.538.538,0,0,1-.36-.36.538.538,0,0,0-.36-.36.36.36,0,0,1-.45-.09,1.734,1.734,0,0,0-.45-.33.407.407,0,0,0-.3-.12.533.533,0,0,0-.24-.06.244.244,0,0,1-.18-.06.372.372,0,0,0-.24-.39,1,1,0,0,1-.36-.21,4.222,4.222,0,0,1-.36-.27q-.18-.15-.3-.27a.591.591,0,0,0-.21-.15.273.273,0,0,1-.15-.15q-.12-.24-.21-.45t.15-.45v-.18a.409.409,0,0,1-.03-.27,1.39,1.39,0,0,0,.03-.27.237.237,0,0,0-.03-.15.122.122,0,0,1-.03-.09.609.609,0,0,1-.12-.33.6.6,0,0,0-.06-.27.986.986,0,0,1,.03-.24.82.82,0,0,0,.03-.18,3.68,3.68,0,0,1,.03-.51,1.167,1.167,0,0,0-.03-.45,6.742,6.742,0,0,0,.15-1.11q.03-.57.09-1.23.12-.66.24-1.38l.24-1.44q.12-.42.21-.84a4,4,0,0,0,.09-.84q.12-.6.21-1.2t.21-1.2q.18-.6.36-1.17t.42-1.17a.533.533,0,0,1,.06-.24,4.077,4.077,0,0,0-.78,1.02q-.24.42-.45.84t-.51.9q-.3.48-.57.99t-.51.99a3.239,3.239,0,0,1-.36.81,3.239,3.239,0,0,0-.36.81q-.3.66-.57,1.32t-.57,1.32a2.416,2.416,0,0,1-.42.72.292.292,0,0,0,.06.15q.06.09,0,.15a2.007,2.007,0,0,0-.21.75.788.788,0,0,1-.45.63v.06a1.6,1.6,0,0,0-.12.6,1.605,1.605,0,0,1-.12.6.246.246,0,0,1-.09.15.8.8,0,0,0-.15.21h-.06l-.09-.18-.09-.18q-.12.48-.24.84t-.24.66h.3a4.925,4.925,0,0,1-.3.87q-.18.39-.36.81l.12.12q-.12.42-.15.48a.325.325,0,0,1-.15.12,2.106,2.106,0,0,0,.06-.6,1.886,1.886,0,0,0-.24.6,3.421,3.421,0,0,1-.18.6,3.2,3.2,0,0,1-.06.72,1.477,1.477,0,0,0-.06.72q.06.06-.06.24a.347.347,0,0,0-.06.24,1.7,1.7,0,0,0-.03.54.6.6,0,0,1-.09.42.409.409,0,0,0-.03.27,1.685,1.685,0,0,1,.03.33h-.3a1.974,1.974,0,0,0-.12-.6h-.12V.9l.06-.06a1.2,1.2,0,0,0,.27-.66,3.08,3.08,0,0,1,.15-.72.318.318,0,0,0,0-.27.737.737,0,0,1-.06-.27,1.008,1.008,0,0,1,.06-.78,1.071,1.071,0,0,0,.24-.78.739.739,0,0,0,.03-.36.739.739,0,0,1,.03-.36.122.122,0,0,1,.03-.09.122.122,0,0,0,.03-.09.173.173,0,0,1,.06-.12q-.24-.12-.15-.18a.983.983,0,0,0,.15-.12.384.384,0,0,0,.24-.36,1.388,1.388,0,0,1-.3-.18,1.961,1.961,0,0,1,.12-.21,1.964,1.964,0,0,0,.12-.21.273.273,0,0,0,.15.15.273.273,0,0,1,.15.15,1.885,1.885,0,0,1,.03-.3,1.041,1.041,0,0,0-.03-.42.192.192,0,0,1-.12.18.339.339,0,0,1-.03-.24,1.262,1.262,0,0,0,.03-.3q.24.3.27.24t.15-.36a1.053,1.053,0,0,1,.12-.3q-.12.12-.3,0t-.3.12a.6.6,0,0,0-.15.36.95.95,0,0,0,.03.42,3.574,3.574,0,0,0-.36.48.122.122,0,0,1-.03.09.122.122,0,0,0-.03.09.649.649,0,0,0-.18.48.533.533,0,0,0-.06.24q0,.12-.18.06-.06,0-.18-.3a.531.531,0,0,0-.24-.15.531.531,0,0,1-.24-.15,8.222,8.222,0,0,1-.54,1.02q.06.12.12.27t.12.27a2.635,2.635,0,0,0-.39.33,1.734,1.734,0,0,1-.45.33.173.173,0,0,1,.12.06.665.665,0,0,1-.03.21.273.273,0,0,0,.03.21,1.03,1.03,0,0,0-.06.42q0,.12-.36.12a.571.571,0,0,0,0-.51q-.12-.27.18-.45a.4.4,0,0,0,.06-.39.4.4,0,0,0-.3-.33.122.122,0,0,0,.09-.03.122.122,0,0,1,.09-.03.053.053,0,0,0,.06-.06l-.21-.21a.8.8,0,0,1-.15-.21.933.933,0,0,0-.15.39,2.769,2.769,0,0,0-.03.39q.24,0,.24.12.12.18,0,.3a3.988,3.988,0,0,1-.3.72.122.122,0,0,0,.03.09.122.122,0,0,1,.03.09,1.226,1.226,0,0,1,.06.39,1.422,1.422,0,0,0,.12.51.921.921,0,0,0,.12-.36.533.533,0,0,1,.06-.24.746.746,0,0,1,.54.24.347.347,0,0,0,.24.06.347.347,0,0,0,.24-.06,1.194,1.194,0,0,0,.18-.72v-.18a.119.119,0,0,0,.18-.06.119.119,0,0,1,.18-.06.1.1,0,0,0,.03-.12.1.1,0,0,1,.03-.12.47.47,0,0,1,.12-.09.47.47,0,0,0,.12-.09q.12.12.12.18a.47.47,0,0,1-.12.09.854.854,0,0,0-.18.15.407.407,0,0,1,.12.3,1.827,1.827,0,0,1,0,.66.075.075,0,0,1,0,.12.075.075,0,0,0,0,.12,2.231,2.231,0,0,0-.06.54.986.986,0,0,1-.03.24.986.986,0,0,0-.03.24,1.685,1.685,0,0,1-.03.33q-.03.15-.33.03a.159.159,0,0,0-.18.18.339.339,0,0,0-.03.24.986.986,0,0,1,.03.24l.18.18-.06.06h-.06a.94.94,0,0,0-.24-.18l-.06-.12a.531.531,0,0,1-.24.15.531.531,0,0,0-.24.15.513.513,0,0,1-.66,0h-.06a.8.8,0,0,1-.66-.18l-.6-.48q-.42-.42-.6.12-.18.18-.24.06-.3-.12-.18-.24a.467.467,0,0,0-.15-.48,1.8,1.8,0,0,1-.33-.36h-.06a.173.173,0,0,1-.12-.06,1.489,1.489,0,0,0,.18.42q-.48-.06-.48-.36a3.656,3.656,0,0,1-.39-.45,1.8,1.8,0,0,0-.39-.39,1.213,1.213,0,0,1-.45-.45.385.385,0,0,0-.45-.21,2.622,2.622,0,0,0-.39-.42,1.209,1.209,0,0,1-.33-.48,1.151,1.151,0,0,0-.36-.84.739.739,0,0,1-.12-.42,1.973,1.973,0,0,0-.06-.48,1.964,1.964,0,0,1-.12-.48v-.24a.924.924,0,0,0,.15-.36.7.7,0,0,0-.09-.42,1.248,1.248,0,0,0-.06-.48,1.038,1.038,0,0,1-.06-.9.747.747,0,0,0,0-.42.5.5,0,0,1,.06-.42.464.464,0,0,1-.12-.42,1.514,1.514,0,0,1,.18-.36q.06-.06,0-.18a1.02,1.02,0,0,1,0-.84h-.06a.461.461,0,0,0,.06-.18.46.46,0,0,1,.06-.18q-.06-.06,0-.06a.5.5,0,0,1,.12-.48,1.409,1.409,0,0,0,.3-.48,5.054,5.054,0,0,0,.12-.9,1.861,1.861,0,0,0,.06-.45v-.39q.06-.42.12-.78a4.739,4.739,0,0,1,.18-.72q.12-.42.21-.84t.21-.84a10.075,10.075,0,0,0,.36-1.38,5.129,5.129,0,0,0,.21-.66,5.126,5.126,0,0,1,.21-.66q.12-.3.24-.63t.24-.63q.18-.48.39-.93a9.3,9.3,0,0,0,.39-.99.273.273,0,0,0,.03-.21.665.665,0,0,1-.03-.21,1.9,1.9,0,0,0,.12-.54h.06l.18.18.06-.06q-.06-.06.06-.24-.3,0-.27-.12a.986.986,0,0,0,.03-.24q.12-.36.42-.3a.418.418,0,0,1-.03.18.418.418,0,0,0-.03.18h.06a3.985,3.985,0,0,0,.3-.72.2.2,0,0,0-.15-.06.329.329,0,0,1-.21-.12,2.384,2.384,0,0,0,.3-.36.484.484,0,0,1,.06.21.484.484,0,0,0,.06.21,1.288,1.288,0,0,0,.24-.42.864.864,0,0,0,.3-.6l.12-.12q-.18-.24-.09-.33l.21-.21a.649.649,0,0,0,.18-.48,5.75,5.75,0,0,0,.3-.9.47.47,0,0,1-.12.09.325.325,0,0,0-.12.15.842.842,0,0,1-.03-.42.687.687,0,0,1,.15-.42l.24-.24a.407.407,0,0,0,.12-.3.418.418,0,0,1,.03-.18q.03-.06.33.06a.2.2,0,0,0,.15.06q.09,0,.09-.18.24-.24.36,0,.12-.12.12-.18-.12-.12-.18-.12l.12-.12.12.12q.12.12.18.12l.12.12a2.383,2.383,0,0,1,.3.36,1.966,1.966,0,0,0,.24.3q.06.24.42.36a1.766,1.766,0,0,1,.45.36.726.726,0,0,1,.15.48,1.961,1.961,0,0,1,.21.12,1.176,1.176,0,0,0,.27.12,1.455,1.455,0,0,1,.21-.18l.27-.18a.729.729,0,0,0,.18.36.439.439,0,0,1,.54.18,5.944,5.944,0,0,0,.42.48.837.837,0,0,1,.36.63,1.681,1.681,0,0,1-.12.63,5.747,5.747,0,0,1-.57,1.62,12.771,12.771,0,0,0-.69,1.5q-.42,1.02-.87,1.95t-.93,1.95a13.218,13.218,0,0,0-.69,2.01q-.27,1.05-.51,2.07a9.46,9.46,0,0,0-.42,1.38,2.848,2.848,0,0,0-.06.66h.06l.18-.18a2.274,2.274,0,0,1,.24-.81q.18-.33.36-.69a1.84,1.84,0,0,0,.18-.33.641.641,0,0,0,0-.39,4.052,4.052,0,0,1,.48-1.29q.36-.63.66-1.29l.54-1.08a5.078,5.078,0,0,0,.33-.66,5.073,5.073,0,0,1,.33-.66,6.252,6.252,0,0,0,.33-.63,2.984,2.984,0,0,1,.39-.63q.24-.3.45-.6t.45-.72a1.142,1.142,0,0,0,.21-.3,3.353,3.353,0,0,1,.21-.36q.24-.24.48.12a.325.325,0,0,1,.12-.15.854.854,0,0,0,.18-.15l-.18-.18a.668.668,0,0,1-.06-.3,1.206,1.206,0,0,1,.36-.6.47.47,0,0,1,.12-.09.47.47,0,0,0,.12-.09,1.053,1.053,0,0,1,.12.3v.24a.053.053,0,0,0,.06.06.237.237,0,0,1,.03-.15.122.122,0,0,0,.03-.09.568.568,0,0,1,0-.51,1.765,1.765,0,0,0,.18-.45.7.7,0,0,1,.12-.18.7.7,0,0,0,.12-.18q.12-.3.6-.18-.12-.24-.06-.3a.346.346,0,0,1,.24-.12q.36,0,.3-.3,0-.18.06-.18a1.156,1.156,0,0,1,.54-.6.66.66,0,0,0,.33-.3,1.163,1.163,0,0,1,.33-.36,1.409,1.409,0,0,1,.48-.3.523.523,0,0,1,.27-.15.281.281,0,0,0,.21-.15.724.724,0,0,1,.6-.39.822.822,0,0,1,.78.21l.27.27a.3.3,0,0,0,.33.09l.18.18a1.966,1.966,0,0,1,.24.3,3.923,3.923,0,0,1,.24.42.407.407,0,0,0,.3.12q.6.12.66.54a.531.531,0,0,1,.15.24.531.531,0,0,0,.15.24q.42-.18.48.12,0,.06-.18.12l.06.06a.475.475,0,0,0,.3-.06q.06-.18.18-.18a.533.533,0,0,1,.24.06A1.592,1.592,0,0,1,169.74-24.48ZM154.5-18.84q-.12.3-.24.57a2.7,2.7,0,0,0-.18.57h.06q.12-.3.24-.54t.24-.54Zm-1.62.78q-.06.3-.12.51t-.12.45a.173.173,0,0,0,.12.06q.06-.24.12-.45t.12-.45a.053.053,0,0,1-.06-.06A.053.053,0,0,0,152.88-18.06Zm1.2,17.52q-.48.36-.3.78.3-.06.33-.18A2.29,2.29,0,0,0,154.08-.54ZM153.9-3.3a.122.122,0,0,1,.03-.09.237.237,0,0,0,.03-.15v-.18q-.18-.06-.18-.18v-.54q-.12.18-.24.39t-.24.39v.12a.244.244,0,0,1-.06.18.91.91,0,0,0,.27-.03.665.665,0,0,1,.21-.03,1.132,1.132,0,0,1-.06.36Zm-1.98-11.28q.12-.06.24-.39a1.843,1.843,0,0,0,.12-.63.122.122,0,0,1-.09-.03.122.122,0,0,0-.09-.03,2.231,2.231,0,0,1-.06.54Q151.98-14.88,151.92-14.58Zm6-4.08a3.88,3.88,0,0,0-.54.96h.06a1.784,1.784,0,0,1,.27-.48,2.166,2.166,0,0,0,.27-.42Zm-.42,3a1.964,1.964,0,0,1-.12.48.7.7,0,0,0,.18-.12.244.244,0,0,1,.18-.06.412.412,0,0,0,.54-.18,1.051,1.051,0,0,0-.33-.06A2.527,2.527,0,0,1,157.5-15.66Zm-.24.66a7.069,7.069,0,0,0-.39.78q-.15.36-.33.72h.06a1.389,1.389,0,0,1,.3-.18.173.173,0,0,0-.12-.06.506.506,0,0,0,.39-.45,1.094,1.094,0,0,1,.21-.57.173.173,0,0,0-.06-.12A.173.173,0,0,1,157.26-15Zm.06,1.56a.053.053,0,0,1-.06-.06,1.03,1.03,0,0,0-.42-.06l.09.18a.854.854,0,0,0,.15.18q.12-.12.12-.15T157.32-13.44Zm-1.56,6.72q.24-.12.06-.3a1.053,1.053,0,0,0-.3.12,1.973,1.973,0,0,0-.06-.48,2.748,2.748,0,0,1-.15.36q-.09.18-.03.24.3.3,0,.54a.053.053,0,0,0-.06.06.946.946,0,0,0-.15.33,1.663,1.663,0,0,1-.15.39.567.567,0,0,0,.18.72v.06q0,.06.03.06t.03.06a2.159,2.159,0,0,1,.27-.33,2.158,2.158,0,0,0,.27-.33.266.266,0,0,1-.12-.03.266.266,0,0,0-.12-.03V-5.4a.173.173,0,0,0,.12.06.461.461,0,0,1,.18.06.665.665,0,0,1,.03-.21.665.665,0,0,0,.03-.21.711.711,0,0,1-.27-.54A.439.439,0,0,1,155.76-6.72Zm-.36-3.48q.3-.06.36.15a.746.746,0,0,0,.18.33.409.409,0,0,1-.03-.27,1.39,1.39,0,0,0,.03-.27.822.822,0,0,1-.3-.48.649.649,0,0,1,.18-.48l-.12-.12.36-.18v-.54h.12a2.747,2.747,0,0,1,.15-.36,3.353,3.353,0,0,1,.21-.36q0-.06.12-.06l.06.12-.18.36a.47.47,0,0,0,.12.09.854.854,0,0,1,.18.15,3.291,3.291,0,0,0,.18-.42q.06-.06,0-.24a3.669,3.669,0,0,0-.48-.66h-.06a.8.8,0,0,1-.09.36l-.21.42a.933.933,0,0,0-.15.39.933.933,0,0,1-.15.39,3.291,3.291,0,0,0-.18.42,3.291,3.291,0,0,1-.18.42q-.24.6-.36.84a2.229,2.229,0,0,0-.09.39.933.933,0,0,1-.15.39.173.173,0,0,1,.12.06.325.325,0,0,1,.12-.15.47.47,0,0,0,.12-.09h.12l-.12.24a.075.075,0,0,1,0,.12q.12.12.12.06a2.551,2.551,0,0,0,.36-.24.921.921,0,0,0-.36-.12.739.739,0,0,0,.03-.36A1.885,1.885,0,0,1,155.4-10.2Zm1.08-1.08-.3-.3a1.176,1.176,0,0,1-.12.27.37.37,0,0,0-.06.21q-.06.06.12.18A.765.765,0,0,1,156.48-11.28Zm1.14,3a2.768,2.768,0,0,0-.36.78l.12.06a.322.322,0,0,1-.24.36.159.159,0,0,0-.18.18.475.475,0,0,0-.06.3q0,.12.18.12a.6.6,0,0,0,.06-.27.373.373,0,0,1,.12-.27.6.6,0,0,0,.27-.54,1.259,1.259,0,0,1,.09-.6Zm.24-.54a1.5,1.5,0,0,1,.33-.51.517.517,0,0,0,.09-.57,3.4,3.4,0,0,1-.27.54A1,1,0,0,0,157.86-8.82Zm.72-4.56a1.213,1.213,0,0,0,.12-1.26,5,5,0,0,0-.6,1.05q-.42.87-.84,1.86t-.75,1.83a4.6,4.6,0,0,0-.33,1.02.46.46,0,0,1,.18-.06,1.967,1.967,0,0,0,.3-.24.2.2,0,0,1,.24-.06q.24.06.24-.06a.346.346,0,0,1,.12-.24,1.052,1.052,0,0,0,.12-.3q.12-.36.18-.6a4.787,4.787,0,0,1,.3-.51,1.109,1.109,0,0,0,.18-.63q-.06-.06.06-.36a2.744,2.744,0,0,1,.21-.75A7.069,7.069,0,0,0,158.58-13.38Zm.3-3.72a1.514,1.514,0,0,0,.18-.36,1.514,1.514,0,0,1,.18-.36,1.866,1.866,0,0,1,.33-.54,3.737,3.737,0,0,0,.39-.54.987.987,0,0,1,.06-.3,2.33,2.33,0,0,1,.12-.3.122.122,0,0,0-.03-.09.122.122,0,0,1-.03-.09q-.06.06-.09.06t-.09.06q-.24.3-.42.57t-.42.57q-.3.6-.54,1.11t-.54,1.05a.94.94,0,0,1,.24.18l-.18-.18a1.182,1.182,0,0,0,.42-.3A3.649,3.649,0,0,0,158.88-17.1Zm.78,0a.921.921,0,0,0-.12.36,2.166,2.166,0,0,1,.27-.42,4.222,4.222,0,0,0,.27-.36.921.921,0,0,0,.12-.36q-.12.18-.27.39T159.66-17.1Zm1.44,1.38a.122.122,0,0,1,.03-.09.237.237,0,0,0,.03-.15.173.173,0,0,0-.12-.06.346.346,0,0,0-.12.24,4.254,4.254,0,0,0-.18.54q-.06.24-.42.24l-.06.06a1.4,1.4,0,0,0,.24.36.7.7,0,0,1,.12-.18.7.7,0,0,0,.12-.18A1.547,1.547,0,0,0,161.1-15.72Zm0-3.3q.06,0,0-.06t0-.18l-.36.36a3.351,3.351,0,0,1-.27.45,2.427,2.427,0,0,0-.27.51.1.1,0,0,0,.09-.06.1.1,0,0,1,.09-.06l.36-.48Zm1.68.66a1.82,1.82,0,0,0,.06-.54.173.173,0,0,1-.12.06,5,5,0,0,0-.21.48q-.09.24-.45.24l-.06.06a3.372,3.372,0,0,1-.12.78.7.7,0,0,1-.12.18.7.7,0,0,0-.12.18.053.053,0,0,0,.06.06q.24-.24.24-.3a.517.517,0,0,1,.21-.45,3.091,3.091,0,0,0,.39-.33A1.673,1.673,0,0,0,162.78-18.36Zm.48-1.02a5.1,5.1,0,0,1,.66-.66Q163.08-19.8,163.26-19.38Zm3.6,16.32a.835.835,0,0,1-.06-.36v-.36A.474.474,0,0,0,166.86-3.06Zm.78,2.94a5.425,5.425,0,0,0,.48-.72q-.3,0-.36.18t-.18.48Zm-.66-5.1a1.545,1.545,0,0,1,.12-1.02Q166.56-5.58,166.98-5.22Zm-3.06-15.06q.6-.18.54-1.02a2.169,2.169,0,0,1-.27.57A3.35,3.35,0,0,0,163.92-20.28Zm.66-2.34q.42-.18.18-.6a8.221,8.221,0,0,0-.42.84h.12a.173.173,0,0,0,.06-.12A.173.173,0,0,1,164.58-22.62Zm-.12-1.62q.48-.12.3-.66A6.239,6.239,0,0,0,164.46-24.24Zm.06-.9q.24-.06.12-.42a.854.854,0,0,0-.15.18.325.325,0,0,1-.15.12l-.24.12q-.36-.18-.42.12,0,.24.18.24,0,.06.06.03a.1.1,0,0,0,.06-.09,2.936,2.936,0,0,1,.3-.18Zm2.52,6.18a.393.393,0,0,0,.09-.42.928.928,0,0,1-.09-.42.646.646,0,0,0-.33.36.44.44,0,0,0,.03.42.6.6,0,0,1,.06.27.609.609,0,0,0,.12.33.641.641,0,0,0,.03-.33A.172.172,0,0,1,167.04-18.96Zm.36-3.3q-.24-.12-.18-.24l.12-.24a.677.677,0,0,0-.06-.48q0-.06-.36-.06.3.24.3.33a1.117,1.117,0,0,1-.18.39v.24q.06.12.12.27t.12.27h.12a1.39,1.39,0,0,1,.03-.27A.227.227,0,0,0,167.4-22.26Zm.84,1.92v-.42q.48-.48-.18-.66,0,.42-.03.72t-.03.6h.06a.173.173,0,0,0-.06-.12.392.392,0,0,1,.18.18.213.213,0,0,0,.03-.18A.1.1,0,0,1,168.24-20.34Zm1.02-.84a1.6,1.6,0,0,0-.33.75,1.687,1.687,0,0,0,.09.69v.12a.7.7,0,0,0-.24.63,1.123,1.123,0,0,1-.06.63q.12-.24.24-.45a.892.892,0,0,0,.12-.45,2.411,2.411,0,0,0,.09-.84,2.411,2.411,0,0,1,.09-.84ZM155.34-3.42a.173.173,0,0,0,.12.06.461.461,0,0,1,.18.06,1.589,1.589,0,0,0-.15.57.637.637,0,0,1-.33.51.173.173,0,0,0-.06-.12,4.4,4.4,0,0,0-.06-.9q0-.18.12-.18Zm-7.86,1.5.06.12a4.656,4.656,0,0,0,.24.6q-.24.12-.27-.06a.3.3,0,0,0-.15-.24.136.136,0,0,1-.03-.15.273.273,0,0,0-.03-.21Zm8.88.84q-.18-.42.24-.48Q156.78-1.08,156.36-1.08Zm46.98-34.56q.48.48.36.78t-.24.63a1.176,1.176,0,0,1-.48.57,1.336,1.336,0,0,0-.42.33,2.621,2.621,0,0,1-.42.39q-.24.12-.48.27t-.48.27q-.24.12-.24.18-.24.42-.54.42a4.04,4.04,0,0,1-.66-.06q-.54-.12-.3-.48a4.219,4.219,0,0,1,.27-.36,4.222,4.222,0,0,0,.27-.36q.12-.12.12-.18l-.06-.06a2.09,2.09,0,0,0-.42.42q-.72.6-1.08-.18a.946.946,0,0,1-.15-.33q-.03-.15.33-.27a.392.392,0,0,0,.18-.18,2.937,2.937,0,0,1,.18-.3q-.48.12-.84.24t-.78.24a2.781,2.781,0,0,0,.06-.54,2.781,2.781,0,0,1,.06-.54h-3.24a5.539,5.539,0,0,0-.78.06q-.36.06-.75.09t-.75.09a1.974,1.974,0,0,1-.6.12q-.78.12-1.5.24t-1.5.24q-.6.12-1.2.21t-1.2.21q-.42.12-.81.24t-.75.24a.386.386,0,0,0-.18.24l-.12.36a2.871,2.871,0,0,0-.36,1.08l-.18,1.08q-.24.72-.42,1.44t-.42,1.44a1.659,1.659,0,0,1-.15.33,1.658,1.658,0,0,0-.15.33,1.422,1.422,0,0,0-.12.51,2.67,2.67,0,0,1-.06.51q-.24.84-.42,1.62t-.36,1.62q-.3.96-.51,1.89t-.45,1.89q-.18.72-.3,1.5l-.24,1.56q-.12.42-.24.81t-.24.81a.668.668,0,0,0-.06.3v.69a2.18,2.18,0,0,1-.12.69,2.187,2.187,0,0,0-.18.87,7.5,7.5,0,0,1-.06.93l-.12,1.68-.12,1.68v1.53q0,.75.06,1.53A13.289,13.289,0,0,0,180.6,1.2a1.336,1.336,0,0,0,.33.42,2.622,2.622,0,0,1,.39.42.47.47,0,0,1,.09.12.47.47,0,0,0,.09.12l.12.12a6.888,6.888,0,0,1-.66.54h-.12q-.06,1.02-1.2.6-.72-.3-.84-.72l-.12-.12a1.706,1.706,0,0,1-.81-.45,5.937,5.937,0,0,0-.75-.63,1.238,1.238,0,0,1-.78-.84.173.173,0,0,0-.06-.12.075.075,0,0,0-.12,0q-.54.18-.78-.12A6.546,6.546,0,0,0,174.9,0a4.524,4.524,0,0,1-.51-.6,4.524,4.524,0,0,0-.51-.6,4.651,4.651,0,0,1-1.68-2.22,9.84,9.84,0,0,0-.42-1.23,9.845,9.845,0,0,1-.42-1.23,8.094,8.094,0,0,1-.18-.96l-.12-.96a14.6,14.6,0,0,1-.18-2.28q0-.48.03-.99t.09-.99a4.2,4.2,0,0,0,.06-.69,3.207,3.207,0,0,1,.06-.63l.36-2.52a4.372,4.372,0,0,0,.06-.72,2.265,2.265,0,0,1,.12-.72q.12-.84.3-1.62t.36-1.62a10.5,10.5,0,0,0,.18-1.05,10.5,10.5,0,0,1,.18-1.05,4.167,4.167,0,0,0,.15-.87,2.106,2.106,0,0,1,.21-.81,3.471,3.471,0,0,0,.33-1.26,5.919,5.919,0,0,1,.21-1.26,5,5,0,0,0,.21-.48,4.418,4.418,0,0,0,.15-.48,6.613,6.613,0,0,0,.18-.81,4.561,4.561,0,0,1,.18-.75,1.307,1.307,0,0,1,.21-.51,2.427,2.427,0,0,0,.27-.51.347.347,0,0,0,.06-.24,1.524,1.524,0,0,0-.9.03q-.42.15-.9.27-1.2.36-2.52.72a.761.761,0,0,1-.6-.15.661.661,0,0,1-.3-.57q0-.42-.48-.36-.3.18-.6-.24a2.348,2.348,0,0,0-.3-.54.933.933,0,0,0-.66-.3.649.649,0,0,1-.33-.15.341.341,0,0,1-.09-.45q0-.18-.3-.18a.2.2,0,0,0-.21,0,.2.2,0,0,1-.21,0q-.6-.12-.18-.48a3.7,3.7,0,0,0-.66-.42q-.36-.18-.24-.72.06-.06-.06-.15a2.253,2.253,0,0,1-.24-.21,1.575,1.575,0,0,1,.15-.24q.09-.12.21-.3-.42.24-.66-.24a.173.173,0,0,0-.12-.06.46.46,0,0,1-.18-.06.986.986,0,0,0-.24.03q-.12.03-.12-.03a.81.81,0,0,0-.84-.48v-.3q.18-.18.18-.12a.946.946,0,0,0,.15-.33.281.281,0,0,1,.15-.21.387.387,0,0,1,.3,0,1.515,1.515,0,0,1,.36.18.94.94,0,0,0,.18-.24,2.934,2.934,0,0,1,.18-.3,1.1,1.1,0,0,0,.33.09,2.3,2.3,0,0,1,.51.15l.12-.06q0-.3.18-.3h.3a1.762,1.762,0,0,1,.66-.12,4.373,4.373,0,0,0,.72-.06.173.173,0,0,1,.12-.06.173.173,0,0,0,.12-.06.5.5,0,0,1,.39-.24,1.86,1.86,0,0,1,.45.06.94.94,0,0,1,.24.18,1.389,1.389,0,0,1-.3.18,1.248,1.248,0,0,0,.48-.06.8.8,0,0,0,.21-.15l.21-.21a.292.292,0,0,1,.15.06.37.37,0,0,0,.21.06q.36,0,.72-.03t.72-.09h.84a1.053,1.053,0,0,1,.3-.12q-.12-.12-.12-.18t-.12-.12h-.3q-.3.12-.57.24t-.57.24q-.06-.06-.06-.09t-.06-.09a1.4,1.4,0,0,1,.24-.36,2.007,2.007,0,0,1,.75-.21q.39-.03.75-.03a.533.533,0,0,0,.24-.06.532.532,0,0,1,.24-.06,1.248,1.248,0,0,1,.48-.06l.36.12.36.12.12-.42q.3-.12.54-.21a3.492,3.492,0,0,1,.54-.15q.48-.12,1.02-.24t1.02-.24q.18-.06.18-.36a1.434,1.434,0,0,0,.09-.66q-.03-.36.15-.48.36-.24.33-.45t-.09-.51l-.18-.18q-.42-.18-.3-.78.18-.6.33-1.17t.33-1.17q0-.18.24-.3.48-.18.24-.66-.24-.18,0-.42a.242.242,0,0,0,.12-.24,1.03,1.03,0,0,0-.42.06.665.665,0,0,0-.03-.21.273.273,0,0,1,.03-.21,2.352,2.352,0,0,1,.24-.54.984.984,0,0,0,.12-.15q.06-.09.12-.09.42,0,.45-.21a4.473,4.473,0,0,1,.09-.45,2.277,2.277,0,0,0,.15-.66q.03-.36.09-.72a5.54,5.54,0,0,0,.06-.78,5.54,5.54,0,0,1,.06-.78,2.6,2.6,0,0,1,.15-.51.856.856,0,0,0,.03-.51.712.712,0,0,1,.27-.72,1.2,1.2,0,0,0,.45-.6h.12a2.525,2.525,0,0,1-.06.6.986.986,0,0,0,.24-.03.986.986,0,0,1,.24-.03,3.719,3.719,0,0,1,.24-.72l.3-.18a.237.237,0,0,0,.03.15.237.237,0,0,1,.03.15,1.82,1.82,0,0,1,.06.54,1.454,1.454,0,0,1,.21-.18,1.96,1.96,0,0,1,.21-.12h.06q.06,0,.06.03t.06.03a.173.173,0,0,0,.12.06.341.341,0,0,0,.09.45q.21.15.39.27a.464.464,0,0,1,.18.78l-.06.06a.94.94,0,0,0,.24.18.94.94,0,0,1,.24.18l.36.18q.48.06.36.54a.836.836,0,0,0-.06.36q.06.42.48.18h.36v.24l-.12.36a.987.987,0,0,0-.06.3,5.993,5.993,0,0,0,.54-.6q.24.3.36.42l.24.24.24-.24a3.921,3.921,0,0,1,.42.24l.36.24q.3.12.24.27t-.12.33a4.415,4.415,0,0,1-.18.48.244.244,0,0,0,.18.06,1.646,1.646,0,0,0,.09-.21,1.647,1.647,0,0,1,.09-.21.526.526,0,0,1,.15-.06.526.526,0,0,0,.15-.06.173.173,0,0,1,.12.06.94.94,0,0,0-.18.24.94.94,0,0,1-.18.24,1.2,1.2,0,0,1,.24,1.02,10.875,10.875,0,0,1-.3,1.08q-.18.54.48.48a1.763,1.763,0,0,0-.06.42,1.133,1.133,0,0,1-.06.36.665.665,0,0,1-.21-.03l-.27-.09a7.867,7.867,0,0,0-.18.99,7.867,7.867,0,0,1-.18.99.356.356,0,0,0,.18.48.489.489,0,0,1,.12.36.739.739,0,0,1-.12.42q-.06.3.06.33a1.262,1.262,0,0,0,.3.03,1.951,1.951,0,0,1,1.38.12.461.461,0,0,0,.33,0q.21-.06.45-.12a1.839,1.839,0,0,0,1.14,0q.42-.12.78-.21t.72-.21a.418.418,0,0,0,.18-.03.266.266,0,0,1,.12-.03,1.171,1.171,0,0,0,.63.27q.33.03.63.03a1.133,1.133,0,0,0,.36-.06l.36-.12a7.867,7.867,0,0,1,.99-.18,2.4,2.4,0,0,1,1.05.12V-42a.489.489,0,0,0,.51.45.576.576,0,0,1,.57.39.679.679,0,0,0,.24.24,1.967,1.967,0,0,1,.3.24,2.384,2.384,0,0,1,.36.3.5.5,0,0,1,.12.48.461.461,0,0,1,.18.06q.24.12.3.06.36-.12.36.24a1.214,1.214,0,0,0,0,.57q.06.09.66.03a.641.641,0,0,1,.57.18.976.976,0,0,1,.33.54.893.893,0,0,0,.84.72,1.018,1.018,0,0,1,.57.27,2.631,2.631,0,0,1,.39.51.649.649,0,0,0,.24.3l.24.24q.12.12-.12.3a.173.173,0,0,1,.06.12Q203.28-35.64,203.34-35.64Zm-25.26,12.3a.266.266,0,0,1,.03-.12.266.266,0,0,0,.03-.12.94.94,0,0,1-.18-.24l-.18.18a2.193,2.193,0,0,0-.15.57q-.03.27-.09.57t-.09.54q-.03.24-.09.54a2.082,2.082,0,0,0,.33-.99A1.541,1.541,0,0,1,178.08-23.34Zm.48-16.14a.715.715,0,0,0,.51.21,1.487,1.487,0,0,0,.45-.15v-.12a3.187,3.187,0,0,0-.45.03A3.681,3.681,0,0,1,178.56-39.48Zm16.92-2.04a5.162,5.162,0,0,1,.96-.12v-.06H195.3l.12.12A.053.053,0,0,0,195.48-41.52Zm-6.96-6.24a2.252,2.252,0,0,0-.21.24q-.09.12-.45-.06.24-.18.6-.42a.266.266,0,0,0,.03.12A.266.266,0,0,1,188.52-47.76Z" transform="translate(0.069 54.66)" fill="#f8e33d"/>
</svg>
